<svg width="26" height="25" viewBox="0 0 26 25" fill="none" xmlns="http://www.w3.org/2000/svg">
<path d="M10.0093 25C9.134 25 8.3005 24.5755 7.74679 23.869C7.33262 24.0896 6.89118 24.2011 6.42959 24.2011C5.14064 24.2011 4.01186 23.2893 3.62692 21.9858C2.08323 21.893 0.853485 20.5045 0.853485 18.8105C0.853485 18.6901 0.859872 18.5688 0.8724 18.4474C0.32533 17.8505 0.0263672 17.0663 0.0263672 16.2149C0.0263672 15.247 0.436855 14.3366 1.11855 13.748C0.876087 13.2725 0.753505 12.7561 0.753505 12.2075C0.753505 11.1375 1.27208 10.1347 2.10141 9.55129C1.9749 9.19067 1.90882 8.81359 1.90882 8.44265C1.90882 6.97437 2.83567 5.7181 4.12192 5.36042C4.1202 5.31817 4.11921 5.27592 4.11921 5.23391C4.11921 3.48019 5.44354 2.05343 7.07149 2.05343C7.13094 2.05343 7.18891 2.05539 7.24517 2.05883C7.66474 0.828593 8.75299 0 10.0093 0C11.6291 0 12.9471 1.42037 12.9471 3.16599C12.9471 3.40231 12.7554 3.59392 12.5191 3.59392C12.2828 3.59392 12.0912 3.40231 12.0912 3.16599C12.0912 1.89203 11.1572 0.855857 10.0093 0.855857C9.0323 0.855857 8.1956 1.58422 7.97476 2.62727C7.95019 2.74249 7.87944 2.84271 7.77873 2.90388C7.67825 2.96505 7.55715 2.98224 7.44292 2.95129C7.34293 2.92378 7.21446 2.90928 7.07149 2.90928C5.91544 2.90928 4.97507 3.95209 4.97507 5.23391C4.97507 5.37787 4.98858 5.52182 5.0016 5.66602C5.02248 5.8957 4.85765 6.10058 4.6287 6.12907C3.566 6.26172 2.76467 7.25638 2.76467 8.44265C2.76467 8.81162 2.8536 9.19115 3.02163 9.54047C3.1221 9.74928 3.03833 10.0001 2.83247 10.1062C2.08937 10.4902 1.60936 11.3148 1.60936 12.2075C1.60936 12.7224 1.75307 13.1993 2.03655 13.6247C2.10042 13.7205 2.12302 13.838 2.0992 13.951C2.07537 14.0635 2.00708 14.1617 1.9098 14.2231C1.27576 14.6255 0.882225 15.3885 0.882225 16.2149C0.882225 16.9076 1.1436 17.5365 1.61845 17.9866C1.72162 18.0843 1.76953 18.2273 1.74619 18.3673C1.72162 18.5142 1.70934 18.6636 1.70934 18.8105C1.70959 20.1056 2.66494 21.1462 3.82664 21.1354C3.83794 21.1354 3.84948 21.1349 3.86078 21.1329C4.09317 21.0936 4.34177 21.241 4.38353 21.4729C4.57858 22.5577 5.43911 23.3453 6.42959 23.3453C6.84917 23.3453 7.24958 23.2097 7.61905 22.9419C7.71755 22.8707 7.84112 22.8451 7.96001 22.8702C8.07866 22.8952 8.18086 22.9699 8.24129 23.0755C8.61935 23.7349 9.29687 24.1441 10.0093 24.1441C11.1572 24.1441 12.0912 23.1016 12.0912 21.8198C12.0912 21.5834 12.2828 21.3918 12.5191 21.3918C12.7554 21.3918 12.947 21.5834 12.947 21.8198C12.947 23.5732 11.6291 25 10.0093 25Z" fill="black"/>
<path d="M12.5192 22.2479C12.2829 22.2479 12.0913 22.0563 12.0913 21.82V3.16621C12.0913 2.92989 12.2829 2.73828 12.5192 2.73828C12.7556 2.73828 12.9472 2.92989 12.9472 3.16621V21.82C12.9472 22.0563 12.7556 22.2479 12.5192 22.2479Z" fill="black"/>
<path d="M6.04538 10.8954C5.90536 10.8954 5.76828 10.8269 5.68623 10.7006C5.0748 9.76049 3.80993 9.48413 2.86637 10.087C2.66714 10.2135 2.40282 10.1555 2.27557 9.95603C2.14856 9.75681 2.20727 9.49248 2.4065 9.36524C3.74384 8.51208 5.53712 8.90193 6.40354 10.2344C6.53227 10.4324 6.47626 10.6974 6.27801 10.8261C6.20604 10.8731 6.12522 10.8954 6.04538 10.8954Z" fill="black"/>
<path d="M3.96203 21.9763C3.75175 21.9763 3.56824 21.821 3.53877 21.6068C3.50634 21.3729 3.66994 21.1568 3.90405 21.1243C4.43786 21.0506 4.91295 20.7701 5.24115 20.3338C5.56934 19.8975 5.70912 19.362 5.63518 18.826C5.60275 18.5921 5.76636 18.3759 6.00047 18.3435C6.2331 18.3131 6.45051 18.4752 6.48269 18.7091C6.58807 19.4706 6.38983 20.2301 5.9248 20.8482C5.45855 21.4677 4.78251 21.8667 4.02098 21.9723C4.00133 21.9748 3.98143 21.9763 3.96203 21.9763Z" fill="black"/>
<path d="M12.5192 14.1612C12.3416 14.1612 12.1755 14.0497 12.1146 13.8723C11.8422 13.0789 11.106 12.5301 10.2825 12.5067C10.0462 12.5001 9.86024 12.3031 9.86687 12.067C9.87375 11.8309 10.0855 11.6614 10.3066 11.6514C11.4848 11.6848 12.5364 12.4657 12.9238 13.5942C13.0007 13.8178 12.8815 14.061 12.658 14.1381C12.6121 14.1538 12.5651 14.1612 12.5192 14.1612Z" fill="black"/>
<path d="M8.65427 16.9138C6.21738 16.9138 4.20129 15.0925 3.96448 12.6774C3.94139 12.4424 4.11335 12.2331 4.34844 12.21C4.58255 12.1847 4.79307 12.3588 4.81592 12.5939C5.00974 14.5687 6.6598 16.0579 8.65427 16.0579C8.89059 16.0579 9.0822 16.2495 9.0822 16.4858C9.0822 16.7221 8.89059 16.9138 8.65427 16.9138Z" fill="black"/>
<path d="M3.56315 16.5147C3.45359 16.5147 3.34403 16.473 3.26051 16.3894C3.09346 16.2219 3.09346 15.9512 3.26075 15.7842C3.9476 15.0978 4.9285 14.7966 5.88336 14.9818C6.11525 15.0266 6.26707 15.2511 6.22236 15.483C6.17765 15.7149 5.95533 15.8691 5.72122 15.822C5.04494 15.6928 4.35145 15.9035 3.86555 16.3894C3.78203 16.473 3.67271 16.5147 3.56315 16.5147Z" fill="black"/>
<path d="M10.3373 22.2903C10.101 22.2903 9.90935 22.0987 9.90935 21.8624C9.90935 21.0606 9.65363 20.2568 9.18909 19.5989C9.053 19.4059 9.09894 19.1391 9.29178 19.003C9.4856 18.8664 9.75164 18.9121 9.88823 19.1057C10.4537 19.9065 10.7652 20.8857 10.7652 21.8624C10.7652 22.0987 10.5736 22.2903 10.3373 22.2903Z" fill="black"/>
<path d="M9.22557 4.15002C9.07817 4.15002 8.93471 4.07386 8.85537 3.93728C8.55935 3.42877 8.04495 3.06324 7.47921 2.95933C7.24682 2.91658 7.0928 2.69378 7.13554 2.46139C7.17804 2.229 7.40134 2.07227 7.63348 2.11772C8.45397 2.2683 9.16882 2.7746 9.59479 3.50689C9.71368 3.71128 9.64441 3.97314 9.44027 4.09179C9.37247 4.13135 9.29852 4.15002 9.22557 4.15002Z" fill="black"/>
<path d="M10.1944 9.3841C10.1352 9.3841 10.075 9.37181 10.0175 9.34553C8.63549 8.71739 7.63322 7.45694 7.33647 5.97392C7.29029 5.74202 7.44038 5.51676 7.67204 5.47033C7.9059 5.42562 8.1292 5.57448 8.17563 5.80589C8.41834 7.01991 9.23931 8.05191 10.3718 8.5668C10.5867 8.66457 10.682 8.91809 10.584 9.13328C10.5125 9.29099 10.357 9.3841 10.1944 9.3841Z" fill="black"/>
<path d="M8.7393 11.0812C8.53196 11.0812 8.34993 10.9301 8.31702 10.7188C8.17626 9.81309 8.3008 8.88722 8.67665 8.04094C8.7727 7.82477 9.02548 7.72773 9.24141 7.82354C9.45734 7.91959 9.55462 8.17237 9.45882 8.3883C9.14954 9.08399 9.0471 9.84454 9.16256 10.5876C9.19891 10.821 9.03899 11.0396 8.80537 11.076C8.78327 11.0794 8.76116 11.0812 8.7393 11.0812Z" fill="black"/>
<path d="M15.0436 25C13.4159 25 12.0913 23.5732 12.0913 21.8198C12.0913 21.5834 12.2829 21.3918 12.5192 21.3918C12.7556 21.3918 12.9472 21.5834 12.9472 21.8198C12.9472 23.1016 13.8875 24.1441 15.0436 24.1441C15.756 24.1441 16.433 23.7349 16.8118 23.0755C16.8727 22.9689 16.9764 22.8938 17.0963 22.8692C17.2171 22.8451 17.3419 22.8721 17.4397 22.9458C17.7826 23.2038 18.1978 23.3453 18.6085 23.3453C19.6073 23.3453 20.474 22.5577 20.6691 21.4729C20.6902 21.3565 20.7585 21.2538 20.8577 21.1894C20.9575 21.125 21.0808 21.1059 21.1938 21.1334C21.2144 21.1373 21.2375 21.1349 21.2611 21.1349C22.4093 21.1349 23.3433 20.0923 23.3433 18.8105C23.3433 18.6636 23.331 18.5142 23.3064 18.3673C23.2833 18.2293 23.3295 18.0883 23.4302 17.9905C23.9009 17.5326 24.1706 16.8855 24.1706 16.2149C24.1706 15.3939 23.7712 14.6309 23.1286 14.2236C23.0313 14.1617 22.963 14.0635 22.9389 13.951C22.9153 13.838 22.9374 13.7205 23.0018 13.6247C23.2946 13.1855 23.443 12.7087 23.443 12.2075C23.443 11.3148 22.963 10.4902 22.2201 10.1062C22.0148 10.0001 21.9307 9.74953 22.031 9.54072C22.199 9.19115 22.2879 8.81137 22.2879 8.44265C22.2879 7.25589 21.4807 6.26148 20.4102 6.12907C20.2937 6.11483 20.1876 6.05292 20.1183 5.9581C20.0485 5.86328 20.0205 5.74389 20.0417 5.62818C20.0657 5.497 20.0775 5.36435 20.0775 5.23391C20.0775 3.95208 19.1372 2.90928 17.9811 2.90928C17.8362 2.90928 17.7114 2.92328 17.6092 2.95129C17.4947 2.982 17.3739 2.96529 17.2736 2.90388C17.1729 2.84246 17.1022 2.74248 17.0776 2.62702C16.857 1.58422 16.0208 0.855857 15.0436 0.855857C13.8875 0.855857 12.9472 1.89203 12.9472 3.16599C12.9472 3.40231 12.7556 3.59392 12.5192 3.59392C12.2829 3.59392 12.0913 3.40231 12.0913 3.16599C12.0913 1.42037 13.4159 0 15.0436 0C16.2999 0 17.3881 0.828593 17.8072 2.05883C17.8637 2.05539 17.9217 2.05343 17.9811 2.05343C19.6088 2.05343 20.9334 3.48019 20.9334 5.23391C20.9334 5.2769 20.9324 5.32014 20.9304 5.36337C22.2177 5.72497 23.1438 6.97806 23.1438 8.44265C23.1438 8.81334 23.078 9.19067 22.9512 9.55129C23.7805 10.1345 24.2989 11.1375 24.2989 12.2075C24.2989 12.7477 24.1721 13.2646 23.921 13.7485C24.6108 14.3401 25.0265 15.2505 25.0265 16.2149C25.0265 17.0398 24.7204 17.8402 24.18 18.444C24.1927 18.5663 24.1991 18.6886 24.1991 18.8105C24.1991 20.5045 22.9694 21.893 21.4257 21.9858C21.04 23.2893 19.9056 24.2011 18.6085 24.2011C18.16 24.2011 17.7094 24.0857 17.3046 23.871C16.7509 24.576 15.9176 25 15.0436 25Z" fill="black"/>
<path d="M19.0074 10.8956C18.9274 10.8956 18.8468 10.8733 18.7746 10.8264C18.5766 10.6976 18.5206 10.4326 18.6493 10.2346C19.5248 8.88815 21.2797 8.50493 22.6446 9.36423C22.8446 9.49001 22.9045 9.75433 22.7787 9.95429C22.6525 10.1543 22.3891 10.2142 22.1887 10.0884C21.2242 9.48067 19.9842 9.75089 19.3666 10.7008C19.2845 10.8271 19.1475 10.8956 19.0074 10.8956Z" fill="black"/>
<path d="M21.0907 21.9766C21.0715 21.9766 21.0519 21.9752 21.0322 21.9727C20.2717 21.8686 19.5966 21.474 19.1323 20.8614C18.6636 20.2428 18.4637 19.4788 18.5698 18.7094C18.6027 18.4751 18.8228 18.3164 19.0523 18.3439C19.2866 18.3763 19.4497 18.5925 19.4178 18.8264C19.3426 19.3693 19.4836 19.9082 19.8143 20.3445C20.1405 20.7749 20.6141 21.052 21.1482 21.1247C21.382 21.1567 21.5461 21.3723 21.5142 21.6067C21.4847 21.8209 21.3015 21.9766 21.0907 21.9766Z" fill="black"/>
<path d="M12.5193 17.4989C12.4714 17.4989 12.4228 17.491 12.3751 17.4738C12.1526 17.3942 12.0368 17.149 12.1164 16.9265C12.5198 15.8004 13.5496 15.0394 14.74 14.9888C14.9538 14.9726 15.1753 15.1617 15.1856 15.398C15.196 15.6339 15.0127 15.8333 14.7764 15.8436C13.9353 15.8795 13.2076 16.418 12.9222 17.2154C12.8595 17.3898 12.695 17.4989 12.5193 17.4989Z" fill="black"/>
<path d="M16.3981 16.9134C16.1618 16.9134 15.9702 16.7218 15.9702 16.4855C15.9702 16.2492 16.1618 16.0576 16.3981 16.0576C18.3929 16.0576 20.0432 14.5684 20.2362 12.5936C20.2593 12.3587 20.4652 12.1863 20.704 12.2096C20.9393 12.2325 21.1113 12.442 21.0882 12.6771C20.8514 15.0921 18.835 16.9134 16.3981 16.9134Z" fill="black"/>
<path d="M21.4753 16.5145C21.3642 16.5145 21.2527 16.4713 21.1692 16.3853C20.7044 15.9087 19.9979 15.6926 19.3317 15.8218C19.0993 15.8689 18.8753 15.7147 18.8306 15.4828C18.7859 15.2509 18.9377 15.0263 19.1696 14.9816C20.1296 14.7969 21.1078 15.0976 21.7814 15.7879C21.9464 15.9569 21.943 16.2276 21.774 16.3927C21.691 16.4737 21.5829 16.5145 21.4753 16.5145Z" fill="black"/>
<path d="M14.715 22.2903C14.4787 22.2903 14.2871 22.0987 14.2871 21.8623C14.2871 20.8856 14.5986 19.9064 15.1646 19.1056C15.2997 18.912 15.5675 18.8654 15.7605 19.0029C15.9536 19.139 15.9998 19.4058 15.8632 19.5989C15.3989 20.2572 15.143 21.061 15.143 21.8623C15.143 22.0987 14.9514 22.2903 14.715 22.2903Z" fill="black"/>
<path d="M15.827 4.15033C15.7543 4.15033 15.6801 4.13166 15.6123 4.09211C15.4079 3.97346 15.3387 3.71159 15.4576 3.5072C15.8835 2.77491 16.5984 2.26861 17.4189 2.11803C17.6512 2.07504 17.8738 2.22931 17.9166 2.4617C17.9593 2.69409 17.8055 2.9169 17.5731 2.95964C17.0076 3.06355 16.4932 3.42909 16.1975 3.93759C16.1179 4.07417 15.9744 4.15033 15.827 4.15033Z" fill="black"/>
<path d="M14.8005 11.0669C14.6929 11.0669 14.5853 11.0266 14.5023 10.9458C14.3328 10.7812 14.3289 10.5102 14.4935 10.3407C15.3665 9.44235 15.7502 8.176 15.5208 6.95289C15.4771 6.72075 15.6304 6.4972 15.8623 6.45347C16.0996 6.41073 16.3182 6.56304 16.3619 6.79518C16.6425 8.29097 16.1737 9.83957 15.1076 10.9372C15.0236 11.0234 14.9121 11.0669 14.8005 11.0669Z" fill="black"/>
<path d="M15.9695 8.65676C15.7681 8.65676 15.5888 8.51379 15.5495 8.30867C15.5057 8.07652 15.6581 7.85249 15.8904 7.80851C16.649 7.66456 17.3344 7.31819 17.8719 6.80649C18.0419 6.64362 18.3136 6.65001 18.4767 6.82147C18.6393 6.9927 18.6329 7.26365 18.4615 7.42652C17.8046 8.05171 16.9708 8.47448 16.0496 8.64914C16.0226 8.6543 15.9961 8.65676 15.9695 8.65676Z" fill="black"/>
</svg>
