<svg width="40" height="25" viewBox="0 0 40 25" fill="none" xmlns="http://www.w3.org/2000/svg">
<path d="M38.4308 25.0007H1.52975C1.20061 25.0007 0.93457 24.7346 0.93457 24.4055C0.93457 24.0763 1.20061 23.8103 1.52975 23.8103H38.4308C38.7599 23.8103 39.026 24.0763 39.026 24.4055C39.026 24.7346 38.7599 25.0007 38.4308 25.0007Z" fill="black"/>
<path d="M3.31588 24.9995C2.98675 24.9995 2.7207 24.7334 2.7207 24.4043V6.68285C2.7207 6.35372 2.98675 6.08768 3.31588 6.08768C3.64501 6.08768 3.91106 6.35372 3.91106 6.68285V24.4043C3.91106 24.7334 3.64501 24.9995 3.31588 24.9995Z" fill="black"/>
<path d="M36.6455 24.9995C36.3163 24.9995 36.0503 24.7334 36.0503 24.4043V6.68285C36.0503 6.35372 36.3163 6.08768 36.6455 6.08768C36.9746 6.08768 37.2406 6.35372 37.2406 6.68285V24.4043C37.2406 24.7334 36.9746 24.9995 36.6455 24.9995Z" fill="black"/>
<path d="M38.4316 7.74012C38.3822 7.74012 38.3322 7.73417 38.2822 7.72108L19.9805 2.99298L1.67874 7.72108C1.36092 7.80738 1.03655 7.61216 0.953818 7.29374C0.871088 6.97591 1.06274 6.65095 1.38116 6.56881L19.8317 1.80203C19.9293 1.77644 20.0316 1.77644 20.1293 1.80203L38.5798 6.56881C38.8982 6.65095 39.0892 6.97591 39.0071 7.29374C38.9381 7.56216 38.6958 7.74012 38.4316 7.74012Z" fill="black"/>
<path d="M38.4316 5.95728C38.3822 5.95728 38.3322 5.95133 38.2822 5.93824L19.9805 1.21015L1.67874 5.93824C1.36092 6.02335 1.03655 5.82932 0.953818 5.5109C0.871088 5.19308 1.06274 4.86811 1.38116 4.78597L19.8317 0.0191945C19.9293 -0.00639816 20.0316 -0.00639816 20.1293 0.0191945L38.5798 4.78597C38.8982 4.86811 39.0892 5.19308 39.0071 5.5109C38.9381 5.77933 38.6958 5.95728 38.4316 5.95728Z" fill="black"/>
<path d="M1.52975 7.73982C1.20061 7.73982 0.93457 7.47378 0.93457 7.14464V5.36208C0.93457 5.03295 1.20061 4.76691 1.52975 4.76691C1.85888 4.76691 2.12493 5.03295 2.12493 5.36208V7.14464C2.12493 7.47378 1.85888 7.73982 1.52975 7.73982Z" fill="black"/>
<path d="M38.4316 7.73982C38.1025 7.73982 37.8364 7.47378 37.8364 7.14464V5.36208C37.8364 5.03295 38.1025 4.76691 38.4316 4.76691C38.7607 4.76691 39.0268 5.03295 39.0268 5.36208V7.14464C39.0268 7.47378 38.7607 7.73982 38.4316 7.73982Z" fill="black"/>
<path d="M25.9328 10.1218H14.0293C13.7001 10.1218 13.4341 9.85573 13.4341 9.52659V7.14529C13.4341 6.81615 13.7001 6.55011 14.0293 6.55011H25.9328C26.262 6.55011 26.528 6.81615 26.528 7.14529V9.52659C26.528 9.85573 26.262 10.1218 25.9328 10.1218ZM14.6244 8.93142H25.3376V7.74047H14.6244V8.93142Z" fill="black"/>
<path d="M19.9795 10.1218C19.6503 10.1218 19.3843 9.85573 19.3843 9.52659V7.14529C19.3843 6.81615 19.6503 6.55011 19.9795 6.55011C20.3086 6.55011 20.5746 6.81615 20.5746 7.14529V9.52659C20.5746 9.85573 20.3086 10.1218 19.9795 10.1218Z" fill="black"/>
<path d="M28.9082 24.9989C28.5791 24.9989 28.3131 24.7329 28.3131 24.4037V13.6905H11.6469V24.4037C11.6469 24.7329 11.3809 24.9989 11.0517 24.9989C10.7226 24.9989 10.4565 24.7329 10.4565 24.4037V13.0954C10.4565 12.7662 10.7226 12.5002 11.0517 12.5002H28.9082C29.2374 12.5002 29.5034 12.7662 29.5034 13.0954V24.4037C29.5034 24.7329 29.2374 24.9989 28.9082 24.9989Z" fill="black"/>
<path d="M28.9082 15.4764H11.0517C10.7226 15.4764 10.4565 15.2104 10.4565 14.8812C10.4565 14.5521 10.7226 14.2861 11.0517 14.2861H28.9082C29.2374 14.2861 29.5034 14.5521 29.5034 14.8812C29.5034 15.2104 29.2374 15.4764 28.9082 15.4764Z" fill="black"/>
<path d="M18.1386 22.6203H11.0512C10.7221 22.6203 10.4561 22.3542 10.4561 22.0251C10.4561 21.6959 10.7221 21.4299 11.0512 21.4299H18.1386C18.4677 21.4299 18.7338 21.6959 18.7338 22.0251C18.7338 22.3542 18.4677 22.6203 18.1386 22.6203Z" fill="black"/>
<path d="M13.4326 24.9997C13.1034 24.9997 12.8374 24.7337 12.8374 24.4045V17.2618C12.8374 16.9327 13.1034 16.6666 13.4326 16.6666C13.7617 16.6666 14.0278 16.9327 14.0278 17.2618V24.4045C14.0278 24.7337 13.7617 24.9997 13.4326 24.9997Z" fill="black"/>
<path d="M15.813 24.999C15.4838 24.999 15.2178 24.7329 15.2178 24.4038V19.6424C15.2178 19.3133 15.4838 19.0472 15.813 19.0472C16.1421 19.0472 16.4081 19.3133 16.4081 19.6424V24.4038C16.4081 24.7329 16.1421 24.999 15.813 24.999Z" fill="black"/>
<path d="M18.1958 25.0006C17.8666 25.0006 17.6006 24.7345 17.6006 24.4054V22.0253C17.6006 21.6961 17.8666 21.4301 18.1958 21.4301C18.5249 21.4301 18.7909 21.6961 18.7909 22.0253V24.4054C18.7909 24.7345 18.5249 25.0006 18.1958 25.0006Z" fill="black"/>
<path d="M15.8143 20.2376H11.0517C10.7226 20.2376 10.4565 19.9715 10.4565 19.6424C10.4565 19.3133 10.7226 19.0472 11.0517 19.0472H15.8143C16.1435 19.0472 16.4095 19.3133 16.4095 19.6424C16.4095 19.9715 16.1435 20.2376 15.8143 20.2376Z" fill="black"/>
<path d="M13.4336 17.857H11.0517C10.7226 17.857 10.4565 17.5909 10.4565 17.2618C10.4565 16.9327 10.7226 16.6666 11.0517 16.6666H13.4336C13.7628 16.6666 14.0288 16.9327 14.0288 17.2618C14.0288 17.5909 13.7628 17.857 13.4336 17.857Z" fill="black"/>
<path d="M28.9101 22.6203H21.8227C21.4936 22.6203 21.2275 22.3542 21.2275 22.0251C21.2275 21.6959 21.4936 21.4299 21.8227 21.4299H28.9101C29.2392 21.4299 29.5053 21.6959 29.5053 22.0251C29.5053 22.3542 29.2392 22.6203 28.9101 22.6203Z" fill="black"/>
<path d="M26.5288 24.9997C26.1996 24.9997 25.9336 24.7337 25.9336 24.4045V17.2618C25.9336 16.9327 26.1996 16.6666 26.5288 16.6666C26.8579 16.6666 27.1239 16.9327 27.1239 17.2618V24.4045C27.1239 24.7337 26.8579 24.9997 26.5288 24.9997Z" fill="black"/>
<path d="M24.1484 24.999C23.8193 24.999 23.5532 24.7329 23.5532 24.4038V19.6424C23.5532 19.3133 23.8193 19.0472 24.1484 19.0472C24.4775 19.0472 24.7436 19.3133 24.7436 19.6424V24.4038C24.7436 24.7329 24.4775 24.999 24.1484 24.999Z" fill="black"/>
<path d="M21.768 25.0006C21.4389 25.0006 21.1729 24.7345 21.1729 24.4054V22.0253C21.1729 21.6961 21.4389 21.4301 21.768 21.4301C22.0972 21.4301 22.3632 21.6961 22.3632 22.0253V24.4054C22.3632 24.7345 22.0972 25.0006 21.768 25.0006Z" fill="black"/>
<path d="M28.911 20.2376H24.1484C23.8193 20.2376 23.5532 19.9715 23.5532 19.6424C23.5532 19.3133 23.8193 19.0472 24.1484 19.0472H28.911C29.2401 19.0472 29.5062 19.3133 29.5062 19.6424C29.5062 19.9715 29.2401 20.2376 28.911 20.2376Z" fill="black"/>
<path d="M28.9107 17.857H26.5288C26.1996 17.857 25.9336 17.5909 25.9336 17.2618C25.9336 16.9327 26.1996 16.6666 26.5288 16.6666H28.9107C29.2398 16.6666 29.5059 16.9327 29.5059 17.2618C29.5059 17.5909 29.2398 17.857 28.9107 17.857Z" fill="black"/>
</svg>
