<svg width="47" height="25" viewBox="0 0 47 25" fill="none" xmlns="http://www.w3.org/2000/svg">
<path d="M45.5535 7.44048H41.0892C40.7605 7.44048 40.494 7.707 40.494 8.03571V11.9048H37.2202V6.54762C37.2202 6.2189 36.9537 5.95238 36.625 5.95238H28.2916V3.57143C28.2916 3.24271 28.0251 2.97619 27.6964 2.97619H23.8273V1.19048H29.1845C29.5132 1.19048 29.7797 0.923956 29.7797 0.595238C29.7797 0.26652 29.5132 0 29.1845 0H23.2321H17.2797C16.951 0 16.6845 0.26652 16.6845 0.595238C16.6845 0.923956 16.951 1.19048 17.2797 1.19048H22.6369V2.97619H18.7678C18.4391 2.97619 18.1726 3.24271 18.1726 3.57143V5.95238H9.83924C9.51052 5.95238 9.244 6.2189 9.244 6.54762V11.9048H5.97019V8.03571C5.97019 7.707 5.70367 7.44048 5.37495 7.44048H2.39876C2.07005 7.44048 1.80352 7.707 1.80352 8.03571V11.9048H0.910668C0.58195 11.9048 0.31543 12.1713 0.31543 12.5V15.4762C0.31543 15.8049 0.58195 16.0714 0.910668 16.0714H1.80352V19.9405C1.80352 20.2692 2.07005 20.5357 2.39876 20.5357H5.37495C5.70367 20.5357 5.97019 20.2692 5.97019 19.9405V16.0714H9.244V21.4286C9.244 21.7573 9.51052 22.0238 9.83924 22.0238H16.6845V24.4048C16.6845 24.7335 16.951 25 17.2797 25H36.625C36.9537 25 37.2202 24.7335 37.2202 24.4048V17.5595H40.494V21.4286C40.494 21.7573 40.7605 22.0238 41.0892 22.0238H45.5535C45.8822 22.0238 46.1488 21.7573 46.1488 21.4286V8.03571C46.1488 7.707 45.8822 7.44048 45.5535 7.44048ZM4.77972 12.5V15.4762V19.3452H2.994V15.4762C2.994 15.1475 2.72748 14.881 2.39876 14.881H1.50591V13.0952H2.39876C2.72748 13.0952 2.994 12.8287 2.994 12.5V8.63095H4.77972V12.5ZM9.244 14.881H5.97019V13.0952H9.244V14.881ZM44.9583 20.8333H41.6845V16.9643C41.6845 16.6356 41.418 16.369 41.0892 16.369H36.625C36.2962 16.369 36.0297 16.6356 36.0297 16.9643V23.8095H17.875V21.4286C17.875 21.0999 17.6084 20.8333 17.2797 20.8333H10.4345V15.4762V12.5V7.14286H18.7678C19.0965 7.14286 19.363 6.87634 19.363 6.54762V4.16667H23.2321H27.1011V6.54762C27.1011 6.87634 27.3677 7.14286 27.6964 7.14286H36.0297V12.5C36.0297 12.8287 36.2962 13.0952 36.625 13.0952H41.0892C41.418 13.0952 41.6845 12.8287 41.6845 12.5V8.63095H44.9583V20.8333Z" fill="black"/>
</svg>
