<svg width="37" height="20" viewBox="0 0 37 20" fill="none" xmlns="http://www.w3.org/2000/svg">
<path d="M20.5385 3.02585C20.2726 2.52797 19.7521 2.2168 19.1863 2.2168H15.1805C14.643 2.2168 14.2017 2.6581 14.2017 3.19558V7.02019C14.2017 7.55767 14.643 7.99897 15.1805 7.99897H21.5343C21.8795 7.99897 22.1963 7.82359 22.3717 7.52939C22.5528 7.23518 22.5641 6.87309 22.4 6.56192L20.5385 3.02585ZM21.6531 7.08808C21.6362 7.11637 21.6022 7.15032 21.54 7.15032H15.1805C15.1069 7.15032 15.0503 7.09374 15.0503 7.02019V3.19558C15.0503 3.12203 15.1069 3.06545 15.1805 3.06545H19.1863C19.4409 3.06545 19.6729 3.2069 19.7917 3.42755L21.6531 6.95796C21.6871 7.01453 21.6645 7.0598 21.6531 7.08808Z" fill="black"/>
<path d="M11.862 2.2168H9.59312C8.97075 2.2168 8.3993 2.60718 8.16733 3.18427L6.78114 6.6581C6.66232 6.96361 6.70193 7.30308 6.88298 7.56899C7.06403 7.8349 7.36956 7.99332 7.69206 7.99332H11.862C12.3995 7.99332 12.8408 7.55202 12.8408 7.01453V3.18992C12.8351 2.6581 12.3995 2.2168 11.862 2.2168ZM11.9864 7.02019C11.9864 7.09374 11.9298 7.15032 11.8563 7.15032H7.6864C7.62983 7.15032 7.59588 7.12203 7.5789 7.09374C7.56193 7.07111 7.54496 7.02585 7.56759 6.97493L8.95378 3.5011C9.05562 3.2465 9.31023 3.07111 9.58747 3.07111H11.8563C11.9298 3.07111 11.9864 3.12769 11.9864 3.20124V7.02019Z" fill="black"/>
<path d="M16.6215 9.31641H14.6299C14.3979 9.31641 14.2056 9.50877 14.2056 9.74073C14.2056 9.9727 14.3979 10.1651 14.6299 10.1651H16.6215C16.8535 10.1651 17.0458 9.9727 17.0458 9.74073C17.0458 9.50877 16.8535 9.31641 16.6215 9.31641Z" fill="black"/>
<path d="M35.1562 13.8501V11.6379C35.1562 11.174 35.0543 10.7214 34.8563 10.297C34.3924 9.28996 33.4588 8.61103 32.3668 8.47525L26.013 7.53041C25.6113 7.47949 25.2605 7.24187 25.0738 6.87977L22.4938 1.99717C21.8431 0.763791 20.5757 0 19.1782 0H9.21461C7.89631 0 6.73078 0.79208 6.25552 2.00849L4.27524 6.9703C4.17906 7.20792 4.12814 7.47949 4.12814 7.73975V8.1075H3.3134V7.64356C3.3134 6.98161 2.77589 6.44413 2.11392 6.44413H1.28786C0.625882 6.44413 0.0883789 6.98161 0.0883789 7.64356V12.3338C0.0883789 12.9958 0.625882 13.5332 1.28786 13.5332H2.11392C2.77589 13.5332 3.3134 12.9958 3.3134 12.3338V11.9095H4.12814V12.5884V13.7822H4.11116C3.4209 13.7822 2.8551 14.3423 2.8551 15.0382V16.1301C2.8551 16.8204 3.41524 17.3861 4.11116 17.3861H5.27104C5.50301 17.3861 5.69538 17.1938 5.69538 16.9618C5.69538 16.7298 5.50301 16.5375 5.27104 16.5375H4.11116C3.88485 16.5375 3.70379 16.3564 3.70379 16.1301V15.0382C3.70379 14.8119 3.88485 14.6308 4.11116 14.6308H4.54682H6.9571C6.64591 15.1627 6.4592 15.7793 6.4592 16.4356C6.4592 18.3989 8.06039 20 10.0237 20C11.6588 20 13.0394 18.8911 13.4581 17.3805H22.6126C22.8445 17.3805 23.0369 17.1881 23.0369 16.9562C23.0369 16.7242 22.8445 16.5318 22.6126 16.5318H13.5825C13.5825 16.4979 13.5825 16.4696 13.5825 16.4356C13.5825 16.413 13.5769 16.3847 13.5769 16.3621C13.5769 16.2489 13.5656 16.1358 13.5542 16.0226C13.5486 15.9604 13.5373 15.8925 13.5259 15.8303C13.5146 15.7624 13.5033 15.6945 13.4863 15.6266C13.4694 15.553 13.4524 15.4738 13.4298 15.4003C13.4184 15.3607 13.4015 15.3267 13.3902 15.2871C13.3279 15.1004 13.2544 14.925 13.1582 14.7553C13.1525 14.7496 13.1525 14.744 13.1469 14.7383C13.1299 14.7044 13.1129 14.6648 13.0959 14.6308H24.293C23.9818 15.1627 23.7951 15.7793 23.7951 16.4356C23.7951 18.3989 25.3963 20 27.3596 20C28.9947 20 30.3752 18.8911 30.7939 17.3805H34.7658C35.4561 17.3805 36.0219 16.8204 36.0219 16.1245V15.0382C36.0162 14.4837 35.6541 14.0198 35.1562 13.8501ZM34.1717 10.9024C34.1887 10.9533 34.2113 11.0099 34.2283 11.0608C34.2396 11.1004 34.2509 11.1457 34.2622 11.1853C34.2905 11.3324 34.3132 11.4851 34.3132 11.6379V12.1641H32.48C32.4178 12.1641 32.3838 12.1245 32.3668 12.1018C32.3555 12.0792 32.3329 12.0339 32.3612 11.9774L32.678 11.2871C32.7912 11.0495 33.0345 10.8967 33.2947 10.8967H34.1717V10.9024ZM4.97117 11.4851V10.2405H5.78025C5.93867 10.2405 6.06315 10.3706 6.06315 10.5233V11.8812C6.06315 12.0396 5.93301 12.1641 5.78025 12.1641H4.97117V11.4851ZM2.46471 12.3395C2.46471 12.5318 2.30628 12.6902 2.11392 12.6902H1.28786C1.09549 12.6902 0.937068 12.5318 0.937068 12.3395V7.64922C0.937068 7.45686 1.09549 7.29844 1.28786 7.29844H2.11392C2.30628 7.29844 2.46471 7.45686 2.46471 7.64922V8.53748V11.4851V12.3395ZM3.3134 11.0608V8.96181H4.12814V9.81612V11.0608H3.3134ZM10.0237 19.1513C8.53 19.1513 7.30789 17.9349 7.30789 16.4356C7.30789 14.9363 8.52434 13.7199 10.0237 13.7199C11.523 13.7199 12.7395 14.9363 12.7395 16.4356C12.7338 17.9349 11.5174 19.1513 10.0237 19.1513ZM12.3887 13.7822C11.7607 13.2221 10.929 12.8713 10.018 12.8713C9.10711 12.8713 8.28105 13.2164 7.64737 13.7822H4.97117V13.0127H5.78025C6.40262 13.0127 6.91184 12.5035 6.91184 11.8812V10.5233C6.91184 9.90099 6.40262 9.3918 5.78025 9.3918H4.97117V8.53748V7.7454C4.97117 7.58699 4.99946 7.42857 5.05604 7.28713L7.03631 2.31966C7.3871 1.42574 8.24145 0.848656 9.20895 0.848656H19.1839C20.2645 0.848656 21.2434 1.44272 21.7469 2.39321L24.3213 7.27016C24.6325 7.87553 25.2265 8.28854 25.8998 8.36775L32.2537 9.31259C32.8138 9.38048 33.3117 9.64639 33.6795 10.0481H33.3004C32.712 10.0481 32.1688 10.3932 31.9142 10.9307L31.5917 11.6209C31.4503 11.9265 31.4729 12.2772 31.6539 12.5601C31.835 12.843 32.1462 13.0127 32.48 13.0127H34.3075V13.7822H29.7302C29.1022 13.2221 28.2705 12.8713 27.3596 12.8713C26.4486 12.8713 25.6226 13.2164 24.9889 13.7822H12.3887ZM27.3596 19.1513C25.8659 19.1513 24.6438 17.9349 24.6438 16.4356C24.6438 14.9363 25.8602 13.7199 27.3596 13.7199C28.1064 13.7199 28.7854 14.0255 29.2776 14.512C29.2946 14.529 29.3116 14.5516 29.3285 14.5743C29.6397 14.9024 29.8604 15.3041 29.9792 15.7567C29.9905 15.802 30.0131 15.8472 30.0188 15.8925C30.0245 15.9208 30.0245 15.9491 30.0301 15.983C30.0527 16.1301 30.0754 16.2829 30.0754 16.4356C30.0754 16.4696 30.0697 16.5092 30.0641 16.5431C30.0075 17.9915 28.8193 19.1513 27.3596 19.1513ZM35.1675 16.1301C35.1675 16.3564 34.9865 16.5375 34.7601 16.5375H30.9184C30.9184 16.5205 30.9184 16.5092 30.9184 16.4922C30.9184 16.4752 30.9184 16.4583 30.9184 16.4413C30.9184 16.2885 30.9071 16.1414 30.8901 16C30.8845 15.9661 30.8788 15.9321 30.8731 15.8982C30.8562 15.7907 30.8335 15.6888 30.8109 15.587C30.7996 15.5361 30.7883 15.4908 30.7713 15.4399C30.743 15.3494 30.7147 15.2645 30.6808 15.174C30.6468 15.0835 30.6072 14.9929 30.562 14.9024C30.5337 14.8402 30.4997 14.7779 30.4658 14.7157C30.4488 14.6874 30.4431 14.6591 30.4262 14.6365H34.7205H34.7488C34.9751 14.6365 35.1562 14.8175 35.1562 15.0438V16.1301H35.1675Z" fill="black"/>
<path d="M10.0219 14.8965C9.17318 14.8965 8.48291 15.5867 8.48291 16.4354C8.48291 17.284 9.17318 17.9743 10.0219 17.9743C10.8706 17.9743 11.5608 17.284 11.5608 16.4354C11.5608 15.5867 10.8706 14.8965 10.0219 14.8965ZM10.0219 17.1256C9.64278 17.1256 9.3316 16.8144 9.3316 16.4354C9.3316 16.0563 9.64278 15.7451 10.0219 15.7451C10.4009 15.7451 10.7121 16.0563 10.7121 16.4354C10.7121 16.8144 10.4009 17.1256 10.0219 17.1256Z" fill="black"/>
<path d="M27.3617 14.8965C26.513 14.8965 25.8228 15.5867 25.8228 16.4354C25.8228 17.284 26.513 17.9743 27.3617 17.9743C28.2104 17.9743 28.9007 17.284 28.9007 16.4354C28.9007 15.5867 28.2104 14.8965 27.3617 14.8965ZM27.3617 17.1256C26.9826 17.1256 26.6714 16.8144 26.6714 16.4354C26.6714 16.0563 26.9826 15.7451 27.3617 15.7451C27.7408 15.7451 28.052 16.0563 28.052 16.4354C28.052 16.8144 27.7464 17.1256 27.3617 17.1256Z" fill="black"/>
</svg>
