<svg width="444" height="418" viewBox="0 0 444 418" fill="none" xmlns="http://www.w3.org/2000/svg">
<g filter="url(#filter0_d_701_24445)">
<rect x="64" y="32.3906" width="316" height="331" rx="7.45371" fill="url(#paint0_linear_701_24445)" fill-opacity="0.5" shape-rendering="crispEdges"/>
<rect x="64.2588" y="32.6494" width="315.482" height="330.482" rx="7.1949" stroke="white" stroke-opacity="0.2" stroke-width="0.517618" shape-rendering="crispEdges"/>
<rect x="64.2588" y="32.6494" width="315.482" height="330.482" rx="7.1949" stroke="url(#paint1_linear_701_24445)" stroke-width="0.517618" shape-rendering="crispEdges"/>
<g filter="url(#filter1_b_701_24445)">
<rect x="346.973" y="37.5625" width="8.90305" height="8.90303" rx="1.24228" fill="url(#paint2_linear_701_24445)" fill-opacity="0.8"/>
<rect x="347.16" y="37.7499" width="8.5283" height="8.52828" rx="1.05491" stroke="url(#paint3_linear_701_24445)" stroke-width="0.374744"/>
</g>
<g filter="url(#filter2_b_701_24445)">
<rect x="357.949" y="37.5625" width="8.90305" height="8.90303" rx="1.24228" fill="url(#paint4_linear_701_24445)" fill-opacity="0.8"/>
<rect x="358.137" y="37.7499" width="8.5283" height="8.52828" rx="1.05491" stroke="url(#paint5_linear_701_24445)" stroke-width="0.374744"/>
</g>
<g filter="url(#filter3_b_701_24445)">
<rect x="336" y="37.5625" width="8.90305" height="8.90303" rx="1.24228" fill="url(#paint6_linear_701_24445)" fill-opacity="0.8"/>
<rect x="336.187" y="37.7499" width="8.5283" height="8.52828" rx="1.05491" stroke="url(#paint7_linear_701_24445)" stroke-width="0.374744"/>
</g>
<g filter="url(#filter4_b_701_24445)">
<rect x="76.5586" y="37.5625" width="8.90305" height="8.90303" rx="1.24228" fill="url(#paint8_linear_701_24445)" fill-opacity="0.8"/>
<rect x="76.746" y="37.7499" width="8.5283" height="8.52828" rx="1.05491" stroke="url(#paint9_linear_701_24445)" stroke-width="0.374744"/>
</g>
<g clip-path="url(#clip0_701_24445)">
<rect x="77" y="68.3906" width="290" height="282" rx="10" fill="white"/>
<rect x="77.5" y="68.8906" width="289" height="46" rx="9.5" fill="#F2F3F5"/>
<rect x="77.5" y="68.8906" width="289" height="46" rx="9.5" stroke="#F3A33A"/>
<path d="M100.384 98.3906H98.656V85.5206H103.732C104.608 85.5206 105.37 85.6766 106.018 85.9886C106.666 86.3006 107.17 86.7326 107.53 87.2846C107.902 87.8366 108.088 88.4846 108.088 89.2286C108.088 89.9726 107.902 90.6206 107.53 91.1726C107.17 91.7246 106.666 92.1566 106.018 92.4686C105.37 92.7806 104.608 92.9366 103.732 92.9366H100.204V91.4426H103.732C104.536 91.4426 105.166 91.2506 105.622 90.8666C106.09 90.4706 106.324 89.9246 106.324 89.2286C106.324 88.5326 106.09 87.9926 105.622 87.6086C105.166 87.2126 104.536 87.0146 103.732 87.0146H100.384V98.3906ZM113.479 98.6786C112.543 98.6786 111.715 98.4746 110.995 98.0666C110.275 97.6586 109.711 97.1006 109.303 96.3926C108.895 95.6726 108.691 94.8506 108.691 93.9266C108.691 93.0026 108.895 92.1866 109.303 91.4786C109.711 90.7706 110.275 90.2126 110.995 89.8046C111.715 89.3846 112.543 89.1746 113.479 89.1746C114.415 89.1746 115.237 89.3846 115.945 89.8046C116.665 90.2126 117.229 90.7706 117.637 91.4786C118.057 92.1866 118.267 93.0026 118.267 93.9266C118.267 94.8506 118.057 95.6726 117.637 96.3926C117.229 97.1006 116.665 97.6586 115.945 98.0666C115.237 98.4746 114.415 98.6786 113.479 98.6786ZM113.479 97.2386C114.079 97.2386 114.607 97.1006 115.063 96.8246C115.519 96.5486 115.873 96.1586 116.125 95.6546C116.377 95.1506 116.503 94.5746 116.503 93.9266C116.503 93.2786 116.377 92.7086 116.125 92.2166C115.873 91.7126 115.519 91.3226 115.063 91.0466C114.607 90.7586 114.079 90.6146 113.479 90.6146C112.879 90.6146 112.345 90.7586 111.877 91.0466C111.421 91.3226 111.067 91.7126 110.815 92.2166C110.563 92.7086 110.437 93.2786 110.437 93.9266C110.437 94.5746 110.563 95.1506 110.815 95.6546C111.067 96.1586 111.421 96.5486 111.877 96.8246C112.345 97.1006 112.879 97.2386 113.479 97.2386ZM119.403 98.3906V96.9866H120.087C120.423 96.9866 120.669 96.9026 120.825 96.7346C120.993 96.5666 121.095 96.2726 121.131 95.8526L121.689 89.4626H128.259V98.3906H126.585V89.7686L127.773 90.8666H122.013L123.309 89.7686L122.697 96.1406C122.625 96.9806 122.403 97.5686 122.031 97.9046C121.659 98.2286 121.101 98.3906 120.357 98.3906H119.403ZM130.993 98.3906V89.4626H132.631V96.1946L132.505 96.1586L137.851 89.4626H139.309V98.3906H137.671V91.6586L137.815 91.7126L132.451 98.3906H130.993Z" fill="black"/>
<path d="M347 89.6406L341 94.1406L335.5 89.6406" stroke="#A5AFBB" stroke-width="2" stroke-linecap="round"/>
<path d="M98.242 152.671V151.879H98.764C99.1 151.879 99.364 151.657 99.556 151.213C99.76 150.769 99.922 150.061 100.042 149.089L101.032 140.521H109.114V152.581H107.404V140.863L108.448 142.033H101.464L102.688 140.863L101.68 149.305C101.596 150.037 101.458 150.655 101.266 151.159C101.086 151.651 100.816 152.029 100.456 152.293C100.108 152.545 99.628 152.671 99.016 152.671H98.242ZM97.54 156.523V151.879H110.518V156.523H108.862V152.311L110.104 153.391H98.638L99.196 152.365V156.523H97.54ZM112.94 153.391V144.463H114.578V151.195L114.452 151.159L119.798 144.463H121.256V153.391H119.618V146.659L119.762 146.713L114.398 153.391H112.94ZM125.688 156.883H124.014V144.463H125.67V147.199H125.292C125.388 146.611 125.61 146.089 125.958 145.633C126.318 145.177 126.762 144.823 127.29 144.571C127.83 144.307 128.418 144.175 129.054 144.175C129.918 144.175 130.686 144.385 131.358 144.805C132.03 145.213 132.558 145.777 132.942 146.497C133.326 147.205 133.518 148.015 133.518 148.927C133.518 149.851 133.32 150.673 132.924 151.393C132.54 152.101 132 152.659 131.304 153.067C130.62 153.475 129.84 153.679 128.964 153.679C128.16 153.679 127.464 153.517 126.876 153.193C126.288 152.857 125.844 152.407 125.544 151.843C125.244 151.267 125.124 150.625 125.184 149.917L125.526 149.575C125.574 150.091 125.742 150.553 126.03 150.961C126.33 151.369 126.708 151.687 127.164 151.915C127.632 152.131 128.136 152.239 128.676 152.239C129.3 152.239 129.84 152.101 130.296 151.825C130.752 151.537 131.112 151.141 131.376 150.637C131.64 150.133 131.772 149.563 131.772 148.927C131.772 148.291 131.646 147.727 131.394 147.235C131.142 146.731 130.794 146.335 130.35 146.047C129.906 145.759 129.384 145.615 128.784 145.615C128.184 145.615 127.65 145.765 127.182 146.065C126.726 146.353 126.36 146.761 126.084 147.289C125.82 147.817 125.688 148.429 125.688 149.125V156.883ZM143.12 150.763L144.164 151.843C143.696 152.419 143.12 152.869 142.436 153.193C141.764 153.517 141.002 153.679 140.15 153.679C139.178 153.679 138.314 153.475 137.558 153.067C136.802 152.659 136.208 152.101 135.776 151.393C135.356 150.673 135.146 149.851 135.146 148.927C135.146 148.003 135.35 147.187 135.758 146.479C136.166 145.759 136.73 145.195 137.45 144.787C138.17 144.379 138.98 144.175 139.88 144.175C140.756 144.175 141.53 144.379 142.202 144.787C142.886 145.183 143.42 145.735 143.804 146.443C144.2 147.139 144.398 147.949 144.398 148.873V148.981H142.706V148.819C142.706 148.171 142.586 147.607 142.346 147.127C142.106 146.635 141.77 146.257 141.338 145.993C140.918 145.717 140.432 145.579 139.88 145.579C139.292 145.579 138.77 145.717 138.314 145.993C137.858 146.269 137.504 146.659 137.252 147.163C137 147.655 136.874 148.237 136.874 148.909C136.874 149.581 137.012 150.175 137.288 150.691C137.576 151.195 137.972 151.585 138.476 151.861C138.98 152.137 139.556 152.275 140.204 152.275C141.392 152.275 142.364 151.771 143.12 150.763ZM144.398 149.485H136.388V148.243H144.11L144.398 148.873V149.485ZM152.633 153.391L147.755 148.765H147.935L152.345 144.463H154.487L149.699 149.125L149.357 148.189L154.919 153.391H152.633ZM146.567 153.391V144.463H148.241V153.391H146.567ZM158.802 153.391V144.985H160.476V153.391H158.802ZM155.58 145.867V144.463H163.68V145.867H155.58ZM169.36 153.679C168.424 153.679 167.596 153.475 166.876 153.067C166.156 152.659 165.592 152.101 165.184 151.393C164.776 150.673 164.572 149.851 164.572 148.927C164.572 148.003 164.776 147.187 165.184 146.479C165.592 145.771 166.156 145.213 166.876 144.805C167.596 144.385 168.424 144.175 169.36 144.175C170.296 144.175 171.118 144.385 171.826 144.805C172.546 145.213 173.11 145.771 173.518 146.479C173.938 147.187 174.148 148.003 174.148 148.927C174.148 149.851 173.938 150.673 173.518 151.393C173.11 152.101 172.546 152.659 171.826 153.067C171.118 153.475 170.296 153.679 169.36 153.679ZM169.36 152.239C169.96 152.239 170.488 152.101 170.944 151.825C171.4 151.549 171.754 151.159 172.006 150.655C172.258 150.151 172.384 149.575 172.384 148.927C172.384 148.279 172.258 147.709 172.006 147.217C171.754 146.713 171.4 146.323 170.944 146.047C170.488 145.759 169.96 145.615 169.36 145.615C168.76 145.615 168.226 145.759 167.758 146.047C167.302 146.323 166.948 146.713 166.696 147.217C166.444 147.709 166.318 148.279 166.318 148.927C166.318 149.575 166.444 150.151 166.696 150.655C166.948 151.159 167.302 151.549 167.758 151.825C168.226 152.101 168.76 152.239 169.36 152.239ZM177.983 156.883H176.309V144.463H177.965V147.199H177.587C177.683 146.611 177.905 146.089 178.253 145.633C178.613 145.177 179.057 144.823 179.585 144.571C180.125 144.307 180.713 144.175 181.349 144.175C182.213 144.175 182.981 144.385 183.653 144.805C184.325 145.213 184.853 145.777 185.237 146.497C185.621 147.205 185.813 148.015 185.813 148.927C185.813 149.851 185.615 150.673 185.219 151.393C184.835 152.101 184.295 152.659 183.599 153.067C182.915 153.475 182.135 153.679 181.259 153.679C180.455 153.679 179.759 153.517 179.171 153.193C178.583 152.857 178.139 152.407 177.839 151.843C177.539 151.267 177.419 150.625 177.479 149.917L177.821 149.575C177.869 150.091 178.037 150.553 178.325 150.961C178.625 151.369 179.003 151.687 179.459 151.915C179.927 152.131 180.431 152.239 180.971 152.239C181.595 152.239 182.135 152.101 182.591 151.825C183.047 151.537 183.407 151.141 183.671 150.637C183.935 150.133 184.067 149.563 184.067 148.927C184.067 148.291 183.941 147.727 183.689 147.235C183.437 146.731 183.089 146.335 182.645 146.047C182.201 145.759 181.679 145.615 181.079 145.615C180.479 145.615 179.945 145.765 179.477 146.065C179.021 146.353 178.655 146.761 178.379 147.289C178.115 147.817 177.983 148.429 177.983 149.125V156.883Z" fill="black"/>
<path d="M106.018 195.203H104.722L99.592 184.493L100.33 184.475V196.391H98.656V183.521H100.798L105.838 194.105H104.938L109.996 183.521H112.084V196.391H110.41V184.475L111.148 184.493L106.018 195.203ZM122.536 193.763L123.58 194.843C123.112 195.419 122.536 195.869 121.852 196.193C121.18 196.517 120.418 196.679 119.566 196.679C118.594 196.679 117.73 196.475 116.974 196.067C116.218 195.659 115.624 195.101 115.192 194.393C114.772 193.673 114.562 192.851 114.562 191.927C114.562 191.003 114.766 190.187 115.174 189.479C115.582 188.759 116.146 188.195 116.866 187.787C117.586 187.379 118.396 187.175 119.296 187.175C120.172 187.175 120.946 187.379 121.618 187.787C122.302 188.183 122.836 188.735 123.22 189.443C123.616 190.139 123.814 190.949 123.814 191.873V191.981H122.122V191.819C122.122 191.171 122.002 190.607 121.762 190.127C121.522 189.635 121.186 189.257 120.754 188.993C120.334 188.717 119.848 188.579 119.296 188.579C118.708 188.579 118.186 188.717 117.73 188.993C117.274 189.269 116.92 189.659 116.668 190.163C116.416 190.655 116.29 191.237 116.29 191.909C116.29 192.581 116.428 193.175 116.704 193.691C116.992 194.195 117.388 194.585 117.892 194.861C118.396 195.137 118.972 195.275 119.62 195.275C120.808 195.275 121.78 194.771 122.536 193.763ZM123.814 192.485H115.804V191.243H123.526L123.814 191.873V192.485ZM132.697 196.391V187.463H134.371V196.391H132.697ZM125.983 196.391V187.463H127.657V196.391H125.983ZM126.793 192.395V191.009H133.633V192.395H126.793ZM144.526 193.763L145.57 194.843C145.102 195.419 144.526 195.869 143.842 196.193C143.17 196.517 142.408 196.679 141.556 196.679C140.584 196.679 139.72 196.475 138.964 196.067C138.208 195.659 137.614 195.101 137.182 194.393C136.762 193.673 136.552 192.851 136.552 191.927C136.552 191.003 136.756 190.187 137.164 189.479C137.572 188.759 138.136 188.195 138.856 187.787C139.576 187.379 140.386 187.175 141.286 187.175C142.162 187.175 142.936 187.379 143.608 187.787C144.292 188.183 144.826 188.735 145.21 189.443C145.606 190.139 145.804 190.949 145.804 191.873V191.981H144.112V191.819C144.112 191.171 143.992 190.607 143.752 190.127C143.512 189.635 143.176 189.257 142.744 188.993C142.324 188.717 141.838 188.579 141.286 188.579C140.698 188.579 140.176 188.717 139.72 188.993C139.264 189.269 138.91 189.659 138.658 190.163C138.406 190.655 138.28 191.237 138.28 191.909C138.28 192.581 138.418 193.175 138.694 193.691C138.982 194.195 139.378 194.585 139.882 194.861C140.386 195.137 140.962 195.275 141.61 195.275C142.798 195.275 143.77 194.771 144.526 193.763ZM145.804 192.485H137.794V191.243H145.516L145.804 191.873V192.485ZM147.379 195.779V195.005H147.703C147.955 195.005 148.147 194.951 148.279 194.843C148.423 194.735 148.537 194.555 148.621 194.303C148.705 194.039 148.771 193.673 148.819 193.205L149.467 187.463H155.893V195.563H154.237V187.769L155.407 188.867H149.737L151.069 187.769L150.385 193.331C150.313 193.943 150.193 194.429 150.025 194.789C149.869 195.137 149.635 195.389 149.323 195.545C149.011 195.701 148.585 195.779 148.045 195.779H147.379ZM146.983 198.749V195.005H157.225V198.749H155.641V195.329L156.685 196.391H147.937L148.567 195.329V198.749H146.983ZM169.576 196.391L165.202 191.765H165.382L169.468 187.463H171.52L167.362 191.837L171.736 196.391H169.576ZM157.966 196.391L162.34 191.837L158.2 187.463H160.252L164.32 191.765H164.5L160.144 196.391H157.966ZM164.014 196.391V187.463H165.67V196.391H164.014ZM180.034 193.763L181.078 194.843C180.61 195.419 180.034 195.869 179.35 196.193C178.678 196.517 177.916 196.679 177.064 196.679C176.092 196.679 175.228 196.475 174.472 196.067C173.716 195.659 173.122 195.101 172.69 194.393C172.27 193.673 172.06 192.851 172.06 191.927C172.06 191.003 172.264 190.187 172.672 189.479C173.08 188.759 173.644 188.195 174.364 187.787C175.084 187.379 175.894 187.175 176.794 187.175C177.67 187.175 178.444 187.379 179.116 187.787C179.8 188.183 180.334 188.735 180.718 189.443C181.114 190.139 181.312 190.949 181.312 191.873V191.981H179.62V191.819C179.62 191.171 179.5 190.607 179.26 190.127C179.02 189.635 178.684 189.257 178.252 188.993C177.832 188.717 177.346 188.579 176.794 188.579C176.206 188.579 175.684 188.717 175.228 188.993C174.772 189.269 174.418 189.659 174.166 190.163C173.914 190.655 173.788 191.237 173.788 191.909C173.788 192.581 173.926 193.175 174.202 193.691C174.49 194.195 174.886 194.585 175.39 194.861C175.894 195.137 176.47 195.275 177.118 195.275C178.306 195.275 179.278 194.771 180.034 193.763ZM181.312 192.485H173.302V191.243H181.024L181.312 191.873V192.485ZM185.155 199.883H183.481V187.463H185.137V190.199H184.759C184.855 189.611 185.077 189.089 185.425 188.633C185.785 188.177 186.229 187.823 186.757 187.571C187.297 187.307 187.885 187.175 188.521 187.175C189.385 187.175 190.153 187.385 190.825 187.805C191.497 188.213 192.025 188.777 192.409 189.497C192.793 190.205 192.985 191.015 192.985 191.927C192.985 192.851 192.787 193.673 192.391 194.393C192.007 195.101 191.467 195.659 190.771 196.067C190.087 196.475 189.307 196.679 188.431 196.679C187.627 196.679 186.931 196.517 186.343 196.193C185.755 195.857 185.311 195.407 185.011 194.843C184.711 194.267 184.591 193.625 184.651 192.917L184.993 192.575C185.041 193.091 185.209 193.553 185.497 193.961C185.797 194.369 186.175 194.687 186.631 194.915C187.099 195.131 187.603 195.239 188.143 195.239C188.767 195.239 189.307 195.101 189.763 194.825C190.219 194.537 190.579 194.141 190.843 193.637C191.107 193.133 191.239 192.563 191.239 191.927C191.239 191.291 191.113 190.727 190.861 190.235C190.609 189.731 190.261 189.335 189.817 189.047C189.373 188.759 188.851 188.615 188.251 188.615C187.651 188.615 187.117 188.765 186.649 189.065C186.193 189.353 185.827 189.761 185.551 190.289C185.287 190.817 185.155 191.429 185.155 192.125V199.883Z" fill="#FBBC0F"/>
<path d="M98.656 239.391V226.521H103.66C104.5 226.521 105.226 226.665 105.838 226.953C106.462 227.229 106.942 227.619 107.278 228.123C107.626 228.627 107.8 229.221 107.8 229.905C107.8 230.529 107.626 231.087 107.278 231.579C106.942 232.059 106.462 232.437 105.838 232.713C105.226 232.977 104.5 233.109 103.66 233.109H100.564V232.227H103.984C104.86 232.227 105.622 232.371 106.27 232.659C106.93 232.947 107.44 233.355 107.8 233.883C108.172 234.399 108.358 235.017 108.358 235.737C108.358 236.469 108.172 237.111 107.8 237.663C107.44 238.215 106.93 238.641 106.27 238.941C105.622 239.241 104.86 239.391 103.984 239.391H98.656ZM100.384 237.897H104.002C104.806 237.897 105.436 237.705 105.892 237.321C106.36 236.937 106.594 236.397 106.594 235.701C106.594 235.005 106.36 234.465 105.892 234.081C105.436 233.697 104.806 233.505 104.002 233.505H100.204V232.047H103.624C104.368 232.047 104.956 231.867 105.388 231.507C105.82 231.135 106.036 230.631 106.036 229.995C106.036 229.383 105.82 228.903 105.388 228.555C104.956 228.195 104.368 228.015 103.624 228.015H100.384V237.897ZM114.832 239.679C113.896 239.679 113.068 239.475 112.348 239.067C111.628 238.659 111.064 238.101 110.656 237.393C110.248 236.673 110.044 235.851 110.044 234.927C110.044 234.003 110.248 233.187 110.656 232.479C111.064 231.771 111.628 231.213 112.348 230.805C113.068 230.385 113.896 230.175 114.832 230.175C115.768 230.175 116.59 230.385 117.298 230.805C118.018 231.213 118.582 231.771 118.99 232.479C119.41 233.187 119.62 234.003 119.62 234.927C119.62 235.851 119.41 236.673 118.99 237.393C118.582 238.101 118.018 238.659 117.298 239.067C116.59 239.475 115.768 239.679 114.832 239.679ZM114.832 238.239C115.432 238.239 115.96 238.101 116.416 237.825C116.872 237.549 117.226 237.159 117.478 236.655C117.73 236.151 117.856 235.575 117.856 234.927C117.856 234.279 117.73 233.709 117.478 233.217C117.226 232.713 116.872 232.323 116.416 232.047C115.96 231.759 115.432 231.615 114.832 231.615C114.232 231.615 113.698 231.759 113.23 232.047C112.774 232.323 112.42 232.713 112.168 233.217C111.916 233.709 111.79 234.279 111.79 234.927C111.79 235.575 111.916 236.151 112.168 236.655C112.42 237.159 112.774 237.549 113.23 237.825C113.698 238.101 114.232 238.239 114.832 238.239ZM120.766 238.779V238.005H121.09C121.342 238.005 121.534 237.951 121.666 237.843C121.81 237.735 121.924 237.555 122.008 237.303C122.092 237.039 122.158 236.673 122.206 236.205L122.854 230.463H129.28V238.563H127.624V230.769L128.794 231.867H123.124L124.456 230.769L123.772 236.331C123.7 236.943 123.58 237.429 123.412 237.789C123.256 238.137 123.022 238.389 122.71 238.545C122.398 238.701 121.972 238.779 121.432 238.779H120.766ZM120.37 241.749V238.005H130.612V241.749H129.028V238.329L130.072 239.391H121.324L121.954 238.329V241.749H120.37ZM132.839 239.391V230.463H134.477V237.195L134.351 237.159L139.697 230.463H141.155V239.391H139.517V232.659L139.661 232.713L134.297 239.391H132.839ZM146.199 239.391V230.985H147.873V239.391H146.199ZM142.977 231.867V230.463H151.077V231.867H142.977ZM159.942 236.763L160.986 237.843C160.518 238.419 159.942 238.869 159.258 239.193C158.586 239.517 157.824 239.679 156.972 239.679C156 239.679 155.136 239.475 154.38 239.067C153.624 238.659 153.03 238.101 152.598 237.393C152.178 236.673 151.968 235.851 151.968 234.927C151.968 234.003 152.172 233.187 152.58 232.479C152.988 231.759 153.552 231.195 154.272 230.787C154.992 230.379 155.802 230.175 156.702 230.175C157.578 230.175 158.352 230.379 159.024 230.787C159.708 231.183 160.242 231.735 160.626 232.443C161.022 233.139 161.22 233.949 161.22 234.873V234.981H159.528V234.819C159.528 234.171 159.408 233.607 159.168 233.127C158.928 232.635 158.592 232.257 158.16 231.993C157.74 231.717 157.254 231.579 156.702 231.579C156.114 231.579 155.592 231.717 155.136 231.993C154.68 232.269 154.326 232.659 154.074 233.163C153.822 233.655 153.696 234.237 153.696 234.909C153.696 235.581 153.834 236.175 154.11 236.691C154.398 237.195 154.794 237.585 155.298 237.861C155.802 238.137 156.378 238.275 157.026 238.275C158.214 238.275 159.186 237.771 159.942 236.763ZM161.22 235.485H153.21V234.243H160.932L161.22 234.873V235.485ZM162.363 239.391V237.987H163.047C163.383 237.987 163.629 237.903 163.785 237.735C163.953 237.567 164.055 237.273 164.091 236.853L164.649 230.463H171.219V239.391H169.545V230.769L170.733 231.867H164.973L166.269 230.769L165.657 237.141C165.585 237.981 165.363 238.569 164.991 238.905C164.619 239.229 164.061 239.391 163.317 239.391H162.363ZM173.954 239.391V230.463H175.61V239.139L174.512 238.005H178.22C178.772 238.005 179.198 237.873 179.498 237.609C179.81 237.333 179.966 236.955 179.966 236.475C179.966 236.007 179.81 235.647 179.498 235.395C179.198 235.131 178.772 234.999 178.22 234.999H174.782V233.595H178.292C179.312 233.595 180.128 233.865 180.74 234.405C181.364 234.933 181.676 235.617 181.676 236.457C181.676 237.033 181.532 237.543 181.244 237.987C180.956 238.419 180.554 238.761 180.038 239.013C179.534 239.265 178.952 239.391 178.292 239.391H173.954Z" fill="black"/>
<path d="M98.656 282.391V269.521H100.384V281.113L100.168 280.897H103.948C104.764 280.897 105.4 280.699 105.856 280.303C106.312 279.907 106.54 279.355 106.54 278.647C106.54 277.939 106.312 277.393 105.856 277.009C105.4 276.613 104.764 276.415 103.948 276.415H99.538V274.921H103.948C104.836 274.921 105.604 275.077 106.252 275.389C106.912 275.689 107.416 276.121 107.764 276.685C108.124 277.237 108.304 277.891 108.304 278.647C108.304 279.391 108.124 280.045 107.764 280.609C107.404 281.173 106.894 281.611 106.234 281.923C105.586 282.235 104.824 282.391 103.948 282.391H98.656ZM99.736 271.033V269.521H107.296V271.033H99.736ZM116.61 273.463H118.32L113.874 283.813C113.598 284.473 113.244 284.983 112.812 285.343C112.392 285.703 111.786 285.883 110.994 285.883H110.022V284.479H110.958C111.33 284.479 111.636 284.383 111.876 284.191C112.128 284.011 112.332 283.741 112.488 283.381L112.866 282.427L109.014 273.463H110.796L114.018 281.473H113.37L116.61 273.463ZM120.763 282.391H118.837L122.311 277.765L119.143 273.463H121.051L123.391 276.793L125.713 273.463H127.621L124.453 277.765L127.945 282.391H125.983L123.391 278.791L120.763 282.391ZM129.516 282.391V273.463H135.852V274.867H129.84L131.19 273.805V282.391H129.516ZM145.005 282.391H143.439V280.627L143.385 280.195V276.865C143.385 276.157 143.157 275.599 142.701 275.191C142.245 274.771 141.627 274.561 140.847 274.561C140.283 274.561 139.767 274.681 139.299 274.921C138.831 275.149 138.423 275.467 138.075 275.875L137.031 274.795C137.523 274.279 138.087 273.883 138.723 273.607C139.371 273.319 140.091 273.175 140.883 273.175C141.699 273.175 142.413 273.325 143.025 273.625C143.649 273.925 144.135 274.345 144.483 274.885C144.831 275.413 145.005 276.055 145.005 276.811V282.391ZM140.145 282.679C139.473 282.679 138.879 282.559 138.363 282.319C137.847 282.067 137.445 281.725 137.157 281.293C136.869 280.861 136.725 280.369 136.725 279.817C136.725 279.193 136.899 278.665 137.247 278.233C137.607 277.789 138.099 277.453 138.723 277.225C139.347 276.985 140.061 276.865 140.865 276.865H143.583V278.107H141.045C140.289 278.107 139.665 278.245 139.173 278.521C138.693 278.785 138.453 279.199 138.453 279.763C138.453 280.243 138.633 280.627 138.993 280.915C139.365 281.203 139.845 281.347 140.433 281.347C141.009 281.347 141.531 281.233 141.999 281.005C142.467 280.777 142.839 280.459 143.115 280.051C143.403 279.631 143.565 279.151 143.601 278.611L144.195 278.935C144.195 279.655 144.021 280.297 143.673 280.861C143.325 281.425 142.845 281.869 142.233 282.193C141.633 282.517 140.937 282.679 140.145 282.679ZM146.403 282.391V280.987H147.087C147.423 280.987 147.669 280.903 147.825 280.735C147.993 280.567 148.095 280.273 148.131 279.853L148.689 273.463H155.259V282.391H153.585V273.769L154.773 274.867H149.013L150.309 273.769L149.697 280.141C149.625 280.981 149.403 281.569 149.031 281.905C148.659 282.229 148.101 282.391 147.357 282.391H146.403ZM160.279 282.391V273.985H161.953V282.391H160.279ZM157.057 274.867V273.463H165.157V274.867H157.057ZM174.022 279.763L175.066 280.843C174.598 281.419 174.022 281.869 173.338 282.193C172.666 282.517 171.904 282.679 171.052 282.679C170.08 282.679 169.216 282.475 168.46 282.067C167.704 281.659 167.11 281.101 166.678 280.393C166.258 279.673 166.048 278.851 166.048 277.927C166.048 277.003 166.252 276.187 166.66 275.479C167.068 274.759 167.632 274.195 168.352 273.787C169.072 273.379 169.882 273.175 170.782 273.175C171.658 273.175 172.432 273.379 173.104 273.787C173.788 274.183 174.322 274.735 174.706 275.443C175.102 276.139 175.3 276.949 175.3 277.873V277.981H173.608V277.819C173.608 277.171 173.488 276.607 173.248 276.127C173.008 275.635 172.672 275.257 172.24 274.993C171.82 274.717 171.334 274.579 170.782 274.579C170.194 274.579 169.672 274.717 169.216 274.993C168.76 275.269 168.406 275.659 168.154 276.163C167.902 276.655 167.776 277.237 167.776 277.909C167.776 278.581 167.914 279.175 168.19 279.691C168.478 280.195 168.874 280.585 169.378 280.861C169.882 281.137 170.458 281.275 171.106 281.275C172.294 281.275 173.266 280.771 174.022 279.763ZM175.3 278.485H167.29V277.243H175.012L175.3 277.873V278.485ZM179.144 285.883H177.47V273.463H179.126V276.199H178.748C178.844 275.611 179.066 275.089 179.414 274.633C179.774 274.177 180.218 273.823 180.746 273.571C181.286 273.307 181.874 273.175 182.51 273.175C183.374 273.175 184.142 273.385 184.814 273.805C185.486 274.213 186.014 274.777 186.398 275.497C186.782 276.205 186.974 277.015 186.974 277.927C186.974 278.851 186.776 279.673 186.38 280.393C185.996 281.101 185.456 281.659 184.76 282.067C184.076 282.475 183.296 282.679 182.42 282.679C181.616 282.679 180.92 282.517 180.332 282.193C179.744 281.857 179.3 281.407 179 280.843C178.7 280.267 178.58 279.625 178.64 278.917L178.982 278.575C179.03 279.091 179.198 279.553 179.486 279.961C179.786 280.369 180.164 280.687 180.62 280.915C181.088 281.131 181.592 281.239 182.132 281.239C182.756 281.239 183.296 281.101 183.752 280.825C184.208 280.537 184.568 280.141 184.832 279.637C185.096 279.133 185.228 278.563 185.228 277.927C185.228 277.291 185.102 276.727 184.85 276.235C184.598 275.731 184.25 275.335 183.806 275.047C183.362 274.759 182.84 274.615 182.24 274.615C181.64 274.615 181.106 274.765 180.638 275.065C180.182 275.353 179.816 275.761 179.54 276.289C179.276 276.817 179.144 277.429 179.144 278.125V285.883Z" fill="black"/>
<path d="M107.242 325.391V312.521H108.97V325.391H107.242ZM100.168 325.391H98.44V312.521H100.168V325.391ZM99.988 319.487V317.975H107.422V319.487H99.988ZM116.658 316.319V317.903H116.262C115.722 317.903 115.224 318.035 114.768 318.299C114.324 318.551 113.964 318.953 113.688 319.505C113.424 320.045 113.292 320.753 113.292 321.629V325.391H111.618V316.463H113.274V319.325H113.022C113.154 318.569 113.394 317.975 113.742 317.543C114.102 317.111 114.516 316.799 114.984 316.607C115.452 316.415 115.932 316.319 116.424 316.319H116.658ZM122.634 320.999H117.738V319.541H122.634V320.999ZM124.577 325.391V316.463H126.431L129.941 323.051H129.635L133.127 316.463H135.035V325.391H133.469V317.039L134.243 317.255L130.373 324.545H129.113L125.261 317.255L126.107 317.057V325.391H124.577ZM145.212 322.763L146.256 323.843C145.788 324.419 145.212 324.869 144.528 325.193C143.856 325.517 143.094 325.679 142.242 325.679C141.27 325.679 140.406 325.475 139.65 325.067C138.894 324.659 138.3 324.101 137.868 323.393C137.448 322.673 137.238 321.851 137.238 320.927C137.238 320.003 137.442 319.187 137.85 318.479C138.258 317.759 138.822 317.195 139.542 316.787C140.262 316.379 141.072 316.175 141.972 316.175C142.848 316.175 143.622 316.379 144.294 316.787C144.978 317.183 145.512 317.735 145.896 318.443C146.292 319.139 146.49 319.949 146.49 320.873V320.981H144.798V320.819C144.798 320.171 144.678 319.607 144.438 319.127C144.198 318.635 143.862 318.257 143.43 317.993C143.01 317.717 142.524 317.579 141.972 317.579C141.384 317.579 140.862 317.717 140.406 317.993C139.95 318.269 139.596 318.659 139.344 319.163C139.092 319.655 138.966 320.237 138.966 320.909C138.966 321.581 139.104 322.175 139.38 322.691C139.668 323.195 140.064 323.585 140.568 323.861C141.072 324.137 141.648 324.275 142.296 324.275C143.484 324.275 144.456 323.771 145.212 322.763ZM146.49 321.485H138.48V320.243H146.202L146.49 320.873V321.485ZM155.373 325.391V316.463H157.047V325.391H155.373ZM148.659 325.391V316.463H150.333V325.391H148.659ZM149.469 321.395V320.009H156.309V321.395H149.469ZM167.202 322.763L168.246 323.843C167.778 324.419 167.202 324.869 166.518 325.193C165.846 325.517 165.084 325.679 164.232 325.679C163.26 325.679 162.396 325.475 161.64 325.067C160.884 324.659 160.29 324.101 159.858 323.393C159.438 322.673 159.228 321.851 159.228 320.927C159.228 320.003 159.432 319.187 159.84 318.479C160.248 317.759 160.812 317.195 161.532 316.787C162.252 316.379 163.062 316.175 163.962 316.175C164.838 316.175 165.612 316.379 166.284 316.787C166.968 317.183 167.502 317.735 167.886 318.443C168.282 319.139 168.48 319.949 168.48 320.873V320.981H166.788V320.819C166.788 320.171 166.668 319.607 166.428 319.127C166.188 318.635 165.852 318.257 165.42 317.993C165 317.717 164.514 317.579 163.962 317.579C163.374 317.579 162.852 317.717 162.396 317.993C161.94 318.269 161.586 318.659 161.334 319.163C161.082 319.655 160.956 320.237 160.956 320.909C160.956 321.581 161.094 322.175 161.37 322.691C161.658 323.195 162.054 323.585 162.558 323.861C163.062 324.137 163.638 324.275 164.286 324.275C165.474 324.275 166.446 323.771 167.202 322.763ZM168.48 321.485H160.47V320.243H168.192L168.48 320.873V321.485ZM170.055 324.779V324.005H170.379C170.631 324.005 170.823 323.951 170.955 323.843C171.099 323.735 171.213 323.555 171.297 323.303C171.381 323.039 171.447 322.673 171.495 322.205L172.143 316.463H178.569V324.563H176.913V316.769L178.083 317.867H172.413L173.745 316.769L173.061 322.331C172.989 322.943 172.869 323.429 172.701 323.789C172.545 324.137 172.311 324.389 171.999 324.545C171.687 324.701 171.261 324.779 170.721 324.779H170.055ZM169.659 327.749V324.005H179.901V327.749H178.317V324.329L179.361 325.391H170.613L171.243 324.329V327.749H169.659ZM192.252 325.391L187.878 320.765H188.058L192.144 316.463H194.196L190.038 320.837L194.412 325.391H192.252ZM180.642 325.391L185.016 320.837L180.876 316.463H182.928L186.996 320.765H187.176L182.82 325.391H180.642ZM186.69 325.391V316.463H188.346V325.391H186.69ZM202.71 322.763L203.754 323.843C203.286 324.419 202.71 324.869 202.026 325.193C201.354 325.517 200.592 325.679 199.74 325.679C198.768 325.679 197.904 325.475 197.148 325.067C196.392 324.659 195.798 324.101 195.366 323.393C194.946 322.673 194.736 321.851 194.736 320.927C194.736 320.003 194.94 319.187 195.348 318.479C195.756 317.759 196.32 317.195 197.04 316.787C197.76 316.379 198.57 316.175 199.47 316.175C200.346 316.175 201.12 316.379 201.792 316.787C202.476 317.183 203.01 317.735 203.394 318.443C203.79 319.139 203.988 319.949 203.988 320.873V320.981H202.296V320.819C202.296 320.171 202.176 319.607 201.936 319.127C201.696 318.635 201.36 318.257 200.928 317.993C200.508 317.717 200.022 317.579 199.47 317.579C198.882 317.579 198.36 317.717 197.904 317.993C197.448 318.269 197.094 318.659 196.842 319.163C196.59 319.655 196.464 320.237 196.464 320.909C196.464 321.581 196.602 322.175 196.878 322.691C197.166 323.195 197.562 323.585 198.066 323.861C198.57 324.137 199.146 324.275 199.794 324.275C200.982 324.275 201.954 323.771 202.71 322.763ZM203.988 321.485H195.978V320.243H203.7L203.988 320.873V321.485ZM207.831 328.883H206.157V316.463H207.813V319.199H207.435C207.531 318.611 207.753 318.089 208.101 317.633C208.461 317.177 208.905 316.823 209.433 316.571C209.973 316.307 210.561 316.175 211.197 316.175C212.061 316.175 212.829 316.385 213.501 316.805C214.173 317.213 214.701 317.777 215.085 318.497C215.469 319.205 215.661 320.015 215.661 320.927C215.661 321.851 215.463 322.673 215.067 323.393C214.683 324.101 214.143 324.659 213.447 325.067C212.763 325.475 211.983 325.679 211.107 325.679C210.303 325.679 209.607 325.517 209.019 325.193C208.431 324.857 207.987 324.407 207.687 323.843C207.387 323.267 207.267 322.625 207.327 321.917L207.669 321.575C207.717 322.091 207.885 322.553 208.173 322.961C208.473 323.369 208.851 323.687 209.307 323.915C209.775 324.131 210.279 324.239 210.819 324.239C211.443 324.239 211.983 324.101 212.439 323.825C212.895 323.537 213.255 323.141 213.519 322.637C213.783 322.133 213.915 321.563 213.915 320.927C213.915 320.291 213.789 319.727 213.537 319.235C213.285 318.731 212.937 318.335 212.493 318.047C212.049 317.759 211.527 317.615 210.927 317.615C210.327 317.615 209.793 317.765 209.325 318.065C208.869 318.353 208.503 318.761 208.227 319.289C207.963 319.817 207.831 320.429 207.831 321.125V328.883Z" fill="black"/>
</g>
</g>
<defs>
<filter id="filter0_d_701_24445" x="0" y="0.390625" width="444" height="459" filterUnits="userSpaceOnUse" color-interpolation-filters="sRGB">
<feFlood flood-opacity="0" result="BackgroundImageFix"/>
<feColorMatrix in="SourceAlpha" type="matrix" values="0 0 0 0 0 0 0 0 0 0 0 0 0 0 0 0 0 0 127 0" result="hardAlpha"/>
<feOffset dy="32"/>
<feGaussianBlur stdDeviation="32"/>
<feComposite in2="hardAlpha" operator="out"/>
<feColorMatrix type="matrix" values="0 0 0 0 0 0 0 0 0 0 0 0 0 0 0 0 0 0 0.1 0"/>
<feBlend mode="normal" in2="BackgroundImageFix" result="effect1_dropShadow_701_24445"/>
<feBlend mode="normal" in="SourceGraphic" in2="effect1_dropShadow_701_24445" result="shape"/>
</filter>
<filter id="filter1_b_701_24445" x="328.235" y="18.8253" width="46.3772" height="46.3774" filterUnits="userSpaceOnUse" color-interpolation-filters="sRGB">
<feFlood flood-opacity="0" result="BackgroundImageFix"/>
<feGaussianBlur in="BackgroundImageFix" stdDeviation="9.3686"/>
<feComposite in2="SourceAlpha" operator="in" result="effect1_backgroundBlur_701_24445"/>
<feBlend mode="normal" in="SourceGraphic" in2="effect1_backgroundBlur_701_24445" result="shape"/>
</filter>
<filter id="filter2_b_701_24445" x="339.212" y="18.8253" width="46.3772" height="46.3774" filterUnits="userSpaceOnUse" color-interpolation-filters="sRGB">
<feFlood flood-opacity="0" result="BackgroundImageFix"/>
<feGaussianBlur in="BackgroundImageFix" stdDeviation="9.3686"/>
<feComposite in2="SourceAlpha" operator="in" result="effect1_backgroundBlur_701_24445"/>
<feBlend mode="normal" in="SourceGraphic" in2="effect1_backgroundBlur_701_24445" result="shape"/>
</filter>
<filter id="filter3_b_701_24445" x="317.263" y="18.8253" width="46.3772" height="46.3774" filterUnits="userSpaceOnUse" color-interpolation-filters="sRGB">
<feFlood flood-opacity="0" result="BackgroundImageFix"/>
<feGaussianBlur in="BackgroundImageFix" stdDeviation="9.3686"/>
<feComposite in2="SourceAlpha" operator="in" result="effect1_backgroundBlur_701_24445"/>
<feBlend mode="normal" in="SourceGraphic" in2="effect1_backgroundBlur_701_24445" result="shape"/>
</filter>
<filter id="filter4_b_701_24445" x="57.8214" y="18.8253" width="46.3772" height="46.3774" filterUnits="userSpaceOnUse" color-interpolation-filters="sRGB">
<feFlood flood-opacity="0" result="BackgroundImageFix"/>
<feGaussianBlur in="BackgroundImageFix" stdDeviation="9.3686"/>
<feComposite in2="SourceAlpha" operator="in" result="effect1_backgroundBlur_701_24445"/>
<feBlend mode="normal" in="SourceGraphic" in2="effect1_backgroundBlur_701_24445" result="shape"/>
</filter>
<linearGradient id="paint0_linear_701_24445" x1="64" y1="32.3906" x2="380.376" y2="363.03" gradientUnits="userSpaceOnUse">
<stop stop-color="#B5B5B5"/>
<stop offset="1" stop-color="#AAAAAA" stop-opacity="0.45"/>
</linearGradient>
<linearGradient id="paint1_linear_701_24445" x1="380" y1="363.391" x2="63.6236" y2="32.7508" gradientUnits="userSpaceOnUse">
<stop stop-color="white"/>
<stop offset="1" stop-color="white" stop-opacity="0"/>
</linearGradient>
<linearGradient id="paint2_linear_701_24445" x1="355.876" y1="46.4655" x2="347.335" y2="37.5625" gradientUnits="userSpaceOnUse">
<stop stop-color="white"/>
<stop offset="1" stop-color="white" stop-opacity="0"/>
</linearGradient>
<linearGradient id="paint3_linear_701_24445" x1="347.439" y1="37.8213" x2="355.876" y2="46.4655" gradientUnits="userSpaceOnUse">
<stop stop-color="white"/>
<stop offset="1" stop-color="white" stop-opacity="0"/>
</linearGradient>
<linearGradient id="paint4_linear_701_24445" x1="366.852" y1="46.4655" x2="358.312" y2="37.5625" gradientUnits="userSpaceOnUse">
<stop stop-color="white"/>
<stop offset="1" stop-color="white" stop-opacity="0"/>
</linearGradient>
<linearGradient id="paint5_linear_701_24445" x1="358.415" y1="37.8213" x2="366.852" y2="46.4655" gradientUnits="userSpaceOnUse">
<stop stop-color="white"/>
<stop offset="1" stop-color="white" stop-opacity="0"/>
</linearGradient>
<linearGradient id="paint6_linear_701_24445" x1="344.903" y1="46.4655" x2="336.362" y2="37.5625" gradientUnits="userSpaceOnUse">
<stop stop-color="white"/>
<stop offset="1" stop-color="white" stop-opacity="0"/>
</linearGradient>
<linearGradient id="paint7_linear_701_24445" x1="336.466" y1="37.8213" x2="344.903" y2="46.4655" gradientUnits="userSpaceOnUse">
<stop stop-color="white"/>
<stop offset="1" stop-color="white" stop-opacity="0"/>
</linearGradient>
<linearGradient id="paint8_linear_701_24445" x1="85.4616" y1="46.4655" x2="76.9209" y2="37.5625" gradientUnits="userSpaceOnUse">
<stop stop-color="white"/>
<stop offset="1" stop-color="white" stop-opacity="0"/>
</linearGradient>
<linearGradient id="paint9_linear_701_24445" x1="77.0245" y1="37.8213" x2="85.4616" y2="46.4655" gradientUnits="userSpaceOnUse">
<stop stop-color="white"/>
<stop offset="1" stop-color="white" stop-opacity="0"/>
</linearGradient>
<clipPath id="clip0_701_24445">
<rect x="77" y="68.3906" width="290" height="282" rx="10" fill="white"/>
</clipPath>
</defs>
</svg>
