<svg width="32" height="32" viewBox="0 0 32 32" fill="black" xmlns="http://www.w3.org/2000/svg">
<path d="M13.9844 21.0156L22.9844 12.0156L21.5781 10.5625L13.9844 18.1562L10.4219 14.5938L9.01562 16L13.9844 21.0156ZM22.9844 7C23.5469 7 24.0156 7.20312 24.3906 7.60938C24.7969 7.98438 25 8.45312 25 9.01562V22.9844C25 23.5469 24.7969 24.0312 24.3906 24.4375C24.0156 24.8125 23.5469 25 22.9844 25H9.01562C8.45312 25 7.96875 24.8125 7.5625 24.4375C7.1875 24.0312 7 23.5469 7 22.9844V9.01562C7 8.45312 7.1875 7.98438 7.5625 7.60938C7.96875 7.20312 8.45312 7 9.01562 7H22.9844Z" fill="#FBBC0F"/>
</svg>
