<svg width="37" height="25" viewBox="0 0 37 25" fill="none" xmlns="http://www.w3.org/2000/svg">
<path d="M28.9298 0C25.369 0 21.7341 1.00148 21.7341 2.93027V10.6083C21.3261 10.5712 20.881 10.5712 20.4359 10.5712C18.9522 10.5712 17.4685 10.7567 16.2445 11.0905C14.6867 9.05044 12.2016 7.75223 9.45678 7.75223C4.70908 7.75223 0.851562 11.6098 0.851562 16.3576C0.851562 21.1053 4.70908 24.9629 9.45678 24.9629C11.2001 24.9629 12.8321 24.4436 14.1674 23.5534C15.4656 24.4807 17.9507 25 20.4359 25C23.4774 25 26.5189 24.2582 27.372 22.8858C27.8912 22.9228 28.3734 22.9599 28.8927 22.9599C32.4535 22.9599 36.0885 21.9585 36.0885 19.9926V2.96736C36.1255 1.03858 32.5277 0 28.9298 0ZM2.26104 16.3205C2.26104 12.3145 5.488 9.08754 9.49388 9.08754C13.4998 9.08754 16.7267 12.3145 16.7267 16.3205C16.7267 20.3264 13.4998 23.5534 9.49388 23.5534C5.488 23.5534 2.26104 20.2893 2.26104 16.3205ZM26.2963 21.9585C26.2963 22.4407 24.3305 23.5534 20.4729 23.5534C17.9136 23.5534 16.2074 23.0712 15.3172 22.589C16.022 21.9585 16.6154 21.1795 17.0605 20.3264C18.0991 20.549 19.286 20.6602 20.4729 20.6602C22.6984 20.6602 24.9239 20.2522 26.2963 19.5104V21.9585ZM26.2963 17.73C26.2963 18.2122 24.3305 19.3249 20.4729 19.3249C19.3602 19.3249 18.3958 19.2507 17.6169 19.1024C17.9136 18.2493 18.0991 17.2849 18.0991 16.3205V16.2834C18.878 16.3947 19.694 16.4688 20.51 16.4688C22.7355 16.4688 24.961 16.0608 26.3334 15.319V17.73H26.2963ZM20.4729 15.0964C19.5086 15.0964 18.6555 15.0223 17.9507 14.911C17.8024 13.9837 17.5056 13.0935 17.0605 12.2774C17.9507 12.0549 19.1006 11.9065 20.4729 11.9065C24.3305 11.9065 26.2963 13.0193 26.2963 13.5015C26.2963 13.9837 24.3305 15.0964 20.4729 15.0964ZM34.7532 19.9184C34.7532 20.4006 32.7873 21.5134 28.9298 21.5134C28.4847 21.5134 28.0396 21.4763 27.6316 21.4763V18.5831C28.0396 18.6202 28.4847 18.6202 28.9298 18.6202C31.1553 18.6202 33.3808 18.2122 34.7532 17.4703V19.9184ZM34.7532 15.6528C34.7532 16.135 32.7873 17.2478 28.9298 17.2478C28.4847 17.2478 28.0396 17.2107 27.6316 17.2107V14.3175C28.0396 14.3546 28.4847 14.3546 28.9298 14.3546C31.1553 14.3546 33.3808 13.9466 34.7532 13.2047V15.6528ZM34.7532 11.4243C34.7532 11.9065 32.7873 13.0193 28.9298 13.0193C28.4476 13.0193 27.9654 12.9822 27.5203 12.9451C27.1123 11.7953 25.2948 11.0534 23.0694 10.7196V8.97626C24.4417 9.75519 26.6672 10.1261 28.8927 10.1261C31.1182 10.1261 33.3437 9.7181 34.7161 8.97626V11.4243H34.7532ZM34.7532 7.19585C34.7532 7.67804 32.7873 8.7908 28.9298 8.7908C25.0723 8.7908 23.1064 7.67804 23.1064 7.19585V4.74778C24.4788 5.52671 26.7043 5.89763 28.9298 5.89763C31.1553 5.89763 33.3808 5.48961 34.7532 4.74778V7.19585ZM28.9298 4.56231C25.0723 4.56231 23.1064 3.44955 23.1064 2.96736C23.1064 2.48516 25.0723 1.3724 28.9298 1.3724C32.7873 1.3724 34.7532 2.48516 34.7532 2.96736C34.7532 3.44955 32.7873 4.56231 28.9298 4.56231Z" fill="black"/>
<path d="M9.82742 15.6531H9.08559C8.52922 15.6531 8.08412 15.1709 8.12121 14.5774C8.15831 14.0582 8.64049 13.7243 9.12268 13.7243H9.97579C10.3096 13.7243 10.5693 13.9469 10.6434 14.2436C10.6434 14.3178 10.7547 14.392 10.8289 14.392H11.8304C11.9416 14.392 12.0158 14.2807 12.0158 14.2065C11.9045 13.2421 11.1256 12.4632 10.1242 12.389V11.4246C10.1242 11.3134 10.05 11.2392 9.9387 11.2392H8.97432C8.86304 11.2392 8.78886 11.3134 8.78886 11.4246V12.389C7.60193 12.5374 6.67465 13.6501 6.78592 14.9113C6.8972 16.0982 7.97285 16.9884 9.19687 16.9884H9.82742C10.3838 16.9884 10.8289 17.4706 10.7918 18.0641C10.7547 18.5463 10.2725 18.9172 9.79033 18.9172H8.93723C8.6034 18.9172 8.34376 18.6947 8.26958 18.3979C8.26958 18.3237 8.15831 18.2496 8.08412 18.2496H7.11974C7.00847 18.2496 6.93429 18.3608 6.93429 18.435C7.04556 19.3994 7.82448 20.1783 8.82595 20.2525V21.2169C8.82595 21.3282 8.90013 21.4024 9.01141 21.4024H9.97579C10.0871 21.4024 10.1612 21.3282 10.1612 21.2169V20.2154C11.1998 20.03 12.0529 19.251 12.1642 18.1754C12.2755 16.803 11.1998 15.6531 9.82742 15.6531Z" fill="black"/>
</svg>
