<svg xmlns="http://www.w3.org/2000/svg" width="78" height="28" viewBox="0 0 78 28" fill="none">
    <path d="M25.1077 14.0299C25.1077 21.9641 20.0373 27.3332 12.5807 27.3332C5.00493 27.3332 -0.00585938 22.0238 -0.00585938 14.0299C-0.00585938 5.9167 5.00493 0.666991 12.6404 0.666991C20.0373 0.607335 25.1077 6.03602 25.1077 14.0299ZM5.60146 13.9106C5.60146 19.3989 8.22614 22.68 12.5807 22.7397C16.8161 22.7397 19.4407 19.3989 19.4407 13.9106C19.4407 8.54157 16.816 5.20084 12.5211 5.20084C8.28579 5.20084 5.60146 8.60123 5.60146 13.9106Z" fill="black"/>
    <path d="M28.9883 1.26025H39.3081C47.2419 1.26025 51.6561 5.7941 51.6561 14.0266C51.6561 22.1995 47.2419 26.793 39.3081 26.793H28.9883V1.26025ZM38.5923 22.0801C43.7224 22.0801 45.9891 19.0974 45.9891 13.967C45.9891 8.83656 43.6031 5.85376 38.5923 5.85376H34.5359V22.0205H38.5923V22.0801Z" fill="black"/>
    <path d="M77.8382 26.7305H71.9923L69.9642 21.0632H60.4795L58.3916 26.7305H52.665L62.3883 1.19775H68.1746L77.8382 26.7305ZM65.192 7.46162L61.7918 16.9469H68.5325L65.192 7.46162Z" fill="black"/>
</svg>