<svg width="26" height="25" viewBox="0 0 26 25" fill="none" xmlns="http://www.w3.org/2000/svg">
<path d="M0.480631 22.0843C0.250215 22.0843 0.0639648 21.898 0.0639648 21.6676C0.0639648 19.5997 1.74605 17.9176 3.81396 17.9176C4.04438 17.9176 4.23063 18.1039 4.23063 18.3343C4.23063 18.5647 4.04438 18.751 3.81396 18.751C2.20605 18.751 0.897298 20.0597 0.897298 21.6676C0.897298 21.898 0.711048 22.0843 0.480631 22.0843Z" fill="black"/>
<path d="M6.31315 18.7514L3.81315 18.751C3.58273 18.751 3.39648 18.5643 3.39648 18.3343C3.39648 18.1039 3.58315 17.9176 3.81315 17.9176L6.31315 17.918C6.54357 17.918 6.72982 18.1047 6.72982 18.3347C6.72982 18.5651 6.54315 18.7514 6.31315 18.7514Z" fill="black"/>
<path d="M13.8798 18.7521L12.1481 18.7513C11.9177 18.7513 11.7314 18.5646 11.7314 18.3346C11.7314 18.1042 11.9181 17.918 12.1481 17.918L13.8798 17.9188C14.1102 17.9188 14.2964 18.1055 14.2964 18.3355C14.2964 18.5659 14.1098 18.7521 13.8798 18.7521Z" fill="black"/>
<path d="M0.481465 25.0018C0.251465 25.0018 0.0647982 24.8156 0.0647982 24.5852L0.0639648 21.6689C0.0639648 21.4389 0.250215 21.2523 0.480631 21.2523C0.710631 21.2523 0.897298 21.4385 0.897298 21.6689L0.898131 24.5852C0.898131 24.8152 0.711881 25.0018 0.481465 25.0018Z" fill="black"/>
<path d="M6.31315 18.7515C6.08273 18.7515 5.89648 18.5653 5.89648 18.3349V15.9469C5.89648 15.7165 6.08273 15.5303 6.31315 15.5303C6.54357 15.5303 6.72982 15.7165 6.72982 15.9469V18.3349C6.72982 18.5653 6.54357 18.7515 6.31315 18.7515Z" fill="black"/>
<path d="M12.1481 18.7507C11.9177 18.7507 11.7314 18.5644 11.7314 18.334V15.9469C11.7314 15.7165 11.9177 15.5303 12.1481 15.5303C12.3785 15.5303 12.5648 15.7165 12.5648 15.9469V18.334C12.5648 18.5644 12.3785 18.7507 12.1481 18.7507Z" fill="black"/>
<path d="M9.23063 17.085C5.5548 17.085 2.56396 14.0941 2.56396 10.4183C2.56396 10.1879 2.75021 10.0016 2.98063 10.0016C3.21105 10.0016 3.3973 10.1879 3.3973 10.4183C3.3973 13.635 6.01396 16.2516 9.23063 16.2516C12.4473 16.2516 15.064 13.635 15.064 10.4183C15.064 10.1879 15.2502 10.0016 15.4806 10.0016C15.711 10.0016 15.8973 10.1879 15.8973 10.4183C15.8973 14.0941 12.9065 17.085 9.23063 17.085Z" fill="black"/>
<path d="M2.98063 10.8344C2.75021 10.8344 2.56396 10.6482 2.56396 10.4177V5.83399C2.56396 5.60358 2.75021 5.41733 2.98063 5.41733C3.21105 5.41733 3.3973 5.60358 3.3973 5.83399V10.4177C3.3973 10.6482 3.21105 10.8344 2.98063 10.8344Z" fill="black"/>
<path d="M15.4806 10.8345C15.2502 10.8345 15.064 10.6483 15.064 10.4179V5.41828C15.064 5.18787 15.2502 5.00162 15.4806 5.00162C15.711 5.00162 15.8973 5.18787 15.8973 5.41828V10.4179C15.8973 10.6483 15.711 10.8345 15.4806 10.8345Z" fill="black"/>
<path d="M15.4798 5.83432C15.2494 5.83432 15.0632 5.64807 15.0632 5.41765C15.0632 4.0389 13.9419 2.91765 12.5632 2.91765C12.3327 2.91765 12.1465 2.7314 12.1465 2.50099C12.1465 2.27057 12.3327 2.08432 12.5632 2.08432C14.4011 2.08432 15.8965 3.57974 15.8965 5.41765C15.8965 5.64807 15.7102 5.83432 15.4798 5.83432Z" fill="black"/>
<path d="M12.5632 2.9175C12.3327 2.9175 12.1465 2.73125 12.1465 2.50083V0.416667C12.1465 0.18625 12.3327 0 12.5632 0C12.7936 0 12.9798 0.18625 12.9798 0.416667V2.50083C12.9798 2.73125 12.7936 2.9175 12.5632 2.9175Z" fill="black"/>
<path d="M12.5648 0.833333H8.39811C8.1677 0.833333 7.98145 0.647083 7.98145 0.416667C7.98145 0.18625 8.1677 0 8.39811 0H12.5648C12.7952 0 12.9814 0.18625 12.9814 0.416667C12.9814 0.647083 12.7952 0.833333 12.5648 0.833333Z" fill="black"/>
<path d="M2.98063 6.25C2.75021 6.25 2.56396 6.06375 2.56396 5.83333C2.56396 2.61667 5.18063 0 8.3973 0C8.62771 0 8.81396 0.18625 8.81396 0.416667C8.81396 0.647083 8.62771 0.833333 8.3973 0.833333C5.64021 0.833333 3.3973 3.07625 3.3973 5.83333C3.3973 6.06375 3.21105 6.25 2.98063 6.25Z" fill="black"/>
<path d="M15.4799 8.33214C15.3733 8.33214 15.2666 8.2913 15.1853 8.21005L13.5187 6.54339C13.3558 6.38047 13.3558 6.11714 13.5187 5.95422C13.6816 5.7913 13.9449 5.7913 14.1078 5.95422L15.7745 7.62089C15.9374 7.7838 15.9374 8.04714 15.7745 8.21005C15.6933 8.2913 15.5866 8.33214 15.4799 8.33214Z" fill="black"/>
<path d="M9.23145 7.91565C6.64562 7.91565 4.5227 6.6594 4.43353 6.60607C4.23645 6.48774 4.1727 6.23232 4.29062 6.03482C4.40853 5.83815 4.66312 5.77274 4.86187 5.89107C4.88228 5.90357 6.88312 7.08232 9.23145 7.08232C11.5798 7.08232 13.5806 5.90357 13.6006 5.89149C13.7998 5.77315 14.054 5.83857 14.1719 6.03524C14.2898 6.23274 14.226 6.48815 14.029 6.60649C13.9402 6.6594 11.8173 7.91565 9.23145 7.91565Z" fill="black"/>
<path d="M2.98074 8.33214C2.87407 8.33214 2.7674 8.2913 2.68615 8.21005C2.52324 8.04714 2.52324 7.7838 2.68615 7.62089L4.35282 5.95422C4.51574 5.7913 4.77907 5.7913 4.94199 5.95422C5.1049 6.11714 5.1049 6.38047 4.94199 6.54339L3.27532 8.21005C3.19407 8.2913 3.0874 8.33214 2.98074 8.33214Z" fill="black"/>
<path d="M7.56286 19.5829C7.4837 19.5829 7.40328 19.56 7.33203 19.5129L6.08203 18.6804C5.89078 18.5529 5.8387 18.2941 5.96661 18.1025C6.09411 17.9108 6.35203 17.8595 6.54453 17.987L7.79453 18.8195C7.98578 18.947 8.03786 19.2058 7.90995 19.3975C7.82995 19.5179 7.69745 19.5829 7.56286 19.5829Z" fill="black"/>
<path d="M7.56294 19.5825C7.37627 19.5825 7.20669 19.4562 7.15919 19.2667C7.10294 19.0433 7.23877 18.8175 7.46252 18.7616L9.12919 18.3454C9.35169 18.2891 9.57835 18.4246 9.63419 18.6487C9.69044 18.8721 9.5546 19.0979 9.33085 19.1537L7.66419 19.57C7.63044 19.5783 7.59627 19.5825 7.56294 19.5825Z" fill="black"/>
<path d="M10.8987 19.5829C10.7641 19.5829 10.6316 19.5179 10.5516 19.3975C10.4237 19.2058 10.4757 18.947 10.667 18.8195L11.917 17.987C12.1087 17.8595 12.367 17.9108 12.4949 18.1025C12.6228 18.2941 12.5707 18.5529 12.3795 18.6804L11.1295 19.5129C11.0582 19.56 10.9778 19.5829 10.8987 19.5829Z" fill="black"/>
<path d="M10.8978 19.5824C10.8644 19.5824 10.8303 19.5782 10.7965 19.5699L9.12984 19.1537C8.90651 19.0978 8.77067 18.872 8.82651 18.6487C8.88192 18.4257 9.10776 18.2891 9.33151 18.3453L10.9982 18.7616C11.2215 18.8174 11.3573 19.0432 11.3015 19.2666C11.254 19.4557 11.0844 19.5824 10.8978 19.5824Z" fill="black"/>
<path d="M9.24394 21.2507C9.01353 21.2507 8.8252 21.0644 8.8252 20.834C8.8252 20.6036 9.00936 20.4173 9.23936 20.4173H9.24394C9.47394 20.4173 9.66061 20.6036 9.66061 20.834C9.66061 21.0644 9.47394 21.2507 9.24394 21.2507Z" fill="black"/>
<path d="M9.24394 23.7503C9.01353 23.7503 8.8252 23.5641 8.8252 23.3337C8.8252 23.1032 9.00936 22.917 9.23936 22.917H9.24394C9.47394 22.917 9.66061 23.1032 9.66061 23.3337C9.66061 23.5641 9.47394 23.7503 9.24394 23.7503Z" fill="black"/>
<path d="M19.2323 24.9994C16.0156 24.9994 13.3989 22.3823 13.3989 19.1648C13.3989 15.9481 16.0156 13.3311 19.2323 13.3311C22.4489 13.3311 25.0656 15.9481 25.0656 19.1648C25.0656 22.3823 22.4489 24.9994 19.2323 24.9994ZM19.2323 14.1644C16.4752 14.1644 14.2323 16.4077 14.2323 19.1648C14.2323 21.9223 16.4752 24.1661 19.2323 24.1661C21.9893 24.1661 24.2323 21.9223 24.2323 19.1648C24.2323 16.4077 21.9893 14.1644 19.2323 14.1644Z" fill="black"/>
<path d="M19.2323 23.7494C16.7052 23.7494 14.6489 21.6927 14.6489 19.1648C14.6489 16.6373 16.7052 14.5811 19.2323 14.5811C21.7593 14.5811 23.8156 16.6373 23.8156 19.1648C23.8156 21.6927 21.7593 23.7494 19.2323 23.7494ZM19.2323 15.4144C17.1643 15.4144 15.4823 17.0969 15.4823 19.1648C15.4823 21.2331 17.1643 22.9161 19.2323 22.9161C21.3002 22.9161 22.9823 21.2331 22.9823 19.1648C22.9823 17.0969 21.3002 15.4144 19.2323 15.4144Z" fill="black"/>
<path d="M19.2314 20.4145C18.5423 20.4145 17.9814 19.8536 17.9814 19.1645C17.9814 18.4753 18.5423 17.9141 19.2314 17.9141C19.9206 17.9141 20.4814 18.4753 20.4814 19.1645C20.4814 19.8536 19.9206 20.4145 19.2314 20.4145ZM19.2314 18.7474C19.0014 18.7474 18.8148 18.9345 18.8148 19.1645C18.8148 19.3945 19.0014 19.5811 19.2314 19.5811C19.4614 19.5811 19.6481 19.3945 19.6481 19.1645C19.6481 18.9345 19.4614 18.7474 19.2314 18.7474Z" fill="black"/>
<path d="M22.8401 17.499H15.6217C15.3913 17.499 15.2051 17.3128 15.2051 17.0823C15.2051 16.8519 15.3913 16.6657 15.6217 16.6657H22.8401C23.0705 16.6657 23.2567 16.8519 23.2567 17.0823C23.2567 17.3128 23.0705 17.499 22.8401 17.499Z" fill="black"/>
<path d="M20.0652 23.6615C20.0627 23.6615 20.0598 23.6615 20.0573 23.6615C19.8269 23.6569 19.6439 23.4669 19.6485 23.2369C19.6906 21.0223 21.1485 19.1281 23.2764 18.5231C23.4985 18.4594 23.7281 18.5885 23.791 18.8098C23.8539 19.031 23.7256 19.2615 23.5044 19.3244C21.7314 19.8285 20.5169 21.4069 20.4819 23.2523C20.4773 23.4802 20.2919 23.6615 20.0652 23.6615Z" fill="black"/>
<path d="M18.3979 23.6658C18.1713 23.6658 17.9854 23.4837 17.9813 23.2566C17.9483 21.4083 16.7338 19.8283 14.9583 19.3245C14.7367 19.262 14.6083 19.0316 14.6713 18.8104C14.7338 18.5887 14.965 18.4591 15.1854 18.5233C17.3167 19.1279 18.775 21.0241 18.8146 23.242C18.8188 23.472 18.6354 23.662 18.4054 23.6662C18.4029 23.6658 18.4004 23.6658 18.3979 23.6658Z" fill="black"/>
</svg>
