<svg xmlns="http://www.w3.org/2000/svg" width="50" height="40" viewBox="0 0 50 40" fill="none">
    <path d="M4.70739 21.6903C6.46442 21.3828 7.3283 21.2218 7.41615 20.7093C7.48936 20.1968 6.71333 19.7868 5.132 18.9669L2.52574 17.6198C1.70579 17.1952 1.28117 16.9756 0.959047 17.1513C0.622282 17.327 0.549073 17.7809 0.417295 18.7033L0.124456 20.5775C-0.0219636 21.5 -0.0805301 21.9539 0.183025 22.2174C0.44658 22.481 0.915122 22.3931 1.82292 22.2321L4.70739 21.6903Z" fill="#FABB0C"/>
    <path d="M14.2686 5.92088C15.7767 6.87261 16.5234 7.3558 16.9334 7.01903C17.3434 6.69691 17.0359 5.86231 16.421 4.17848L15.4107 1.42579C15.0885 0.547271 14.9275 0.10801 14.5761 0.0201584C14.21 -0.0823355 13.8586 0.210505 13.1265 0.796184L11.6477 1.98218C10.9156 2.56786 10.5642 2.8607 10.5788 3.22675C10.5935 3.60745 10.9888 3.85636 11.7795 4.35419L14.2686 5.92088Z" fill="#FABB0C"/>
    <path d="M26.4068 2.69964C25.9089 4.16384 25.66 4.89594 25.2208 4.96915C25.1476 4.98379 25.0743 4.98379 25.0011 4.96915C24.5619 4.89594 24.313 4.16384 23.8151 2.69964C23.5516 1.92362 23.4198 1.54293 23.5809 1.26473C23.6101 1.2208 23.6394 1.16224 23.6834 1.13295C23.903 0.898679 24.313 0.898678 25.1183 0.898678C25.9382 0.898678 26.3336 0.898679 26.5532 1.13295C26.5971 1.17688 26.6264 1.2208 26.6557 1.26473C26.8021 1.54293 26.6703 1.92362 26.4068 2.69964Z" fill="#FABB0C"/>
    <path d="M7.85541 12.0559C9.33424 12.5244 10.0663 12.7587 10.3885 12.4512C10.447 12.3926 10.491 12.3341 10.5202 12.2755C10.7252 11.8802 10.286 11.2506 9.40746 9.97671C8.93891 9.30318 8.71928 8.96641 8.39716 8.93713C8.33859 8.92249 8.28002 8.92249 8.22146 8.93713C7.89933 8.96641 7.66506 9.30318 7.18188 9.94743C6.69869 10.6063 6.46442 10.9284 6.52299 11.2506C6.53763 11.3091 6.55227 11.3531 6.58156 11.4116C6.68405 11.6898 7.07938 11.807 7.85541 12.0559Z" fill="#FABB0C"/>
    <path d="M24.474 39.9928C28.1199 40.0953 31.5022 39.0996 34.1963 37.3719C34.4891 37.1815 34.3427 36.7569 34.0059 36.7423C31.6779 36.6691 28.7348 36.2737 25.089 35.3513C20.0668 34.0628 16.2306 34.3263 13.4779 34.9999C13.2144 35.0584 13.1265 35.3806 13.3315 35.5563C16.0842 38.1772 20.0375 39.8757 24.474 39.9928Z" fill="#FABB0C" fill-opacity="0.25"/>
    <path d="M25.3672 34.2531C30.3162 35.5123 33.8888 35.7466 36.334 35.5856C36.4219 35.5856 36.4951 35.5416 36.5536 35.4831C37.6079 34.4581 38.4717 33.2868 39.116 32.0129C39.2038 31.8372 39.1306 31.6176 38.9256 31.6322C38.8817 31.6322 38.8378 31.6322 38.7939 31.6469C36.2754 32.1447 31.9561 32.2911 25.2061 30.578C18.0169 28.7477 13.2583 30.0509 10.6227 31.2222C10.447 31.2955 10.3738 31.5004 10.4617 31.6761C10.857 32.4961 11.3548 33.2868 11.9259 34.0189C12.0137 34.136 12.1601 34.1799 12.3066 34.136C15.2642 33.2575 19.5836 32.7743 25.3672 34.2531Z" fill="#FABB0C" fill-opacity="0.5"/>
    <path d="M9.5978 29.3481C9.72958 29.8605 10.286 30.1534 10.7838 29.9484C13.6975 28.777 18.5294 27.7228 25.4843 29.4945C32.1025 31.193 36.1583 30.8708 38.5742 30.5487C38.6767 30.5341 38.7646 30.5194 38.8671 30.5194C39.3795 30.5048 39.9067 30.0948 40.0238 29.597C40.097 29.2895 40.1702 28.982 40.2288 28.6745C40.3605 27.8839 39.5699 27.3128 38.7792 27.4592C36.3633 27.9424 32.1318 28.1035 25.4404 26.3904C17.6216 24.3991 12.5848 26.0536 9.97849 27.3128C9.56852 27.5178 9.33425 27.9424 9.40746 28.3963C9.45138 28.7185 9.52459 29.0259 9.5978 29.3481Z" fill="#FABB0C" fill-opacity="0.75"/>
    <path d="M47.5351 22.2467C48.4575 22.4078 48.9114 22.4956 49.175 22.2321C49.4386 21.9685 49.38 21.5146 49.2336 20.5922L48.9407 18.718C48.7943 17.7955 48.7357 17.3416 48.399 17.1659C48.0622 16.9902 47.6522 17.2099 46.8323 17.6345L44.226 18.9815C42.6447 19.8015 41.854 20.2115 41.9419 20.7239C42.0151 21.2364 42.8936 21.3975 44.6506 21.7049L47.5351 22.2467Z" fill="#FABB0C"/>
    <path d="M38.6621 4.38347C39.4527 3.88564 39.8481 3.63673 39.8627 3.25604C39.8774 2.87535 39.526 2.58251 38.7939 2.01147L37.315 0.825468C36.5829 0.239788 36.2315 -0.053052 35.8655 0.049442C35.4994 0.151936 35.3384 0.591196 35.0309 1.45507L34.0206 4.20777C33.4056 5.87696 33.1128 6.71155 33.5081 7.04831C33.9181 7.37044 34.6648 6.90189 36.1729 5.95016L38.6621 4.38347Z" fill="#FABB0C"/>
    <path d="M43.1718 11.7923C43.2011 11.7338 43.2157 11.6898 43.2304 11.6313C43.2889 11.3091 43.0547 10.987 42.5715 10.3281C42.0883 9.66923 41.854 9.34711 41.5319 9.31782C41.4733 9.31782 41.4148 9.31782 41.3562 9.31782C41.0341 9.36175 40.7998 9.69851 40.3459 10.3574C39.4674 11.6313 39.0281 12.2609 39.2331 12.6562C39.2624 12.7148 39.3063 12.788 39.3649 12.8319C39.6724 13.1394 40.4191 12.9051 41.8979 12.4366C42.6447 12.2169 43.04 12.0852 43.1718 11.7923Z" fill="#FABB0C"/>
    <path d="M18.6172 24.4137C15.2642 24.3698 12.5116 24.8676 10.3006 25.5558C9.72958 25.7315 9.11462 25.3947 9.02676 24.7944C8.92427 24.1209 8.86571 23.4327 8.83642 22.7152C8.60215 13.7836 15.5424 6.3455 24.3423 6.11123C33.1421 5.87696 40.463 12.9344 40.6973 21.8806C40.7266 23.1252 40.6241 24.3259 40.3898 25.4972C40.302 25.9072 39.9799 26.2147 39.5699 26.2586C37.6518 26.449 35.2505 26.4929 32.2928 26.2147L18.6172 24.4137Z" fill="#FABB0C"/>
    <path d="M22.717 25.8193C21.1649 25.5704 19.6861 25.5119 18.3976 25.4533C19.1444 23.4913 18.339 19.8308 16.4942 17.3124C15.8499 16.4338 15.5132 16.0092 16.2892 16.2581C19.1736 17.1659 25.2061 21.3243 28.1199 27.0053" fill="black"/>
</svg>