<svg width="22" height="25" viewBox="0 0 22 25" fill="none" xmlns="http://www.w3.org/2000/svg">
<path d="M17.9471 14.28C15.6413 13.5519 14.0231 13.3496 14.0231 13.3496L12.1623 17.3544L11.8387 13.7137H9.53284L9.00695 17.4758L7.0652 13.3091C7.0652 13.3091 4.92119 13.6732 3.14125 14.2396C2.29174 14.5227 0.0263672 15.534 0.0263672 18.4871V25H21.062V18.568C21.1024 17.4353 20.5765 15.1295 17.9471 14.28ZM10.2205 14.5632H11.1105L11.4746 18.8512L10.5037 20.9143L9.57329 18.8512L10.2205 14.5632ZM20.2529 24.2719H17.4212V21.0356H16.6121V24.2719H4.47621V21.0356H3.66714V24.2719H0.835429V18.568C0.835429 16.1813 2.73672 15.2913 3.38397 15.0891C4.71892 14.6845 5.81116 14.4014 6.57977 14.28L10.5442 22.856L14.5086 14.28C15.2772 14.4014 16.3694 14.6845 17.7044 15.0891C18.3516 15.2913 20.2529 16.1813 20.2529 18.568V24.2719Z" fill="black"/>
<path d="M10.5441 12.5404C13.5376 12.5404 15.803 8.13102 15.803 5.25887C15.803 2.34626 13.4567 0 10.5441 0C7.63143 0 5.28516 2.34626 5.28516 5.25887C5.28516 8.13102 7.55053 12.5404 10.5441 12.5404ZM10.5441 0.809056C12.4858 0.809056 14.1039 2.06309 14.7512 3.76211C12.6476 4.12619 11.8386 2.18445 11.8386 2.18445C11.8386 2.18445 9.85635 4.77343 6.25603 4.12619C6.74147 2.22491 8.48095 0.809056 10.5441 0.809056ZM6.09422 4.93524C6.49875 5.01615 6.94373 5.0566 7.34826 5.0566C8.92593 5.0566 10.4632 4.49026 11.6767 3.43849C12.4454 4.3689 13.6994 4.81389 14.913 4.53072C14.9534 4.77343 14.9939 5.01615 14.9939 5.21841C14.9939 7.72649 12.9712 11.6909 10.5441 11.6909C8.11687 11.6909 6.09422 7.72649 6.09422 5.21841C6.09422 5.13751 6.09422 5.0566 6.09422 4.93524Z" fill="black"/>
</svg>
