<svg width="29" height="25" viewBox="0 0 29 25" fill="none" xmlns="http://www.w3.org/2000/svg">
<path d="M27.8447 0H8.09093C7.83097 0 7.62061 0.210588 7.62061 0.47032V5.6861C7.62061 5.94583 7.83097 6.15642 8.09093 6.15642C8.3509 6.15642 8.56126 5.94583 8.56126 5.6861V4.70321H21.7305V16.9315H19.2801C19.0201 16.9315 18.8097 17.1421 18.8097 17.4019C18.8097 17.6616 19.0201 17.8722 19.2801 17.8722H27.8447C28.1047 17.8722 28.3151 17.6616 28.3151 17.4019V0.47032C28.3151 0.210588 28.1047 0 27.8447 0ZM8.56126 0.940641H27.3744V3.76256H8.56126V0.940641ZM22.6711 16.9315V4.70321H27.3744V16.9315H22.6711Z" fill="black"/>
<path d="M17.0275 2.82193C17.2872 2.82193 17.4978 2.61136 17.4978 2.35161C17.4978 2.09186 17.2872 1.88129 17.0275 1.88129C16.7677 1.88129 16.5571 2.09186 16.5571 2.35161C16.5571 2.61136 16.7677 2.82193 17.0275 2.82193Z" fill="black"/>
<path d="M14.2052 2.82193C14.4649 2.82193 14.6755 2.61136 14.6755 2.35161C14.6755 2.09186 14.4649 1.88129 14.2052 1.88129C13.9454 1.88129 13.7349 2.09186 13.7349 2.35161C13.7349 2.61136 13.9454 2.82193 14.2052 2.82193Z" fill="black"/>
<path d="M11.3834 2.82193C11.6432 2.82193 11.8537 2.61136 11.8537 2.35161C11.8537 2.09186 11.6432 1.88129 11.3834 1.88129C11.1237 1.88129 10.9131 2.09186 10.9131 2.35161C10.9131 2.61136 11.1237 2.82193 11.3834 2.82193Z" fill="black"/>
<path d="M25.9635 7.05481H24.0821C23.8222 7.05481 23.6118 7.2654 23.6118 7.52513C23.6118 7.78486 23.8222 7.99545 24.0821 7.99545H25.9635C26.2234 7.99545 26.4338 7.78486 26.4338 7.52513C26.4338 7.2654 26.2234 7.05481 25.9635 7.05481Z" fill="black"/>
<path d="M25.9635 8.9361H24.0821C23.8222 8.9361 23.6118 9.14668 23.6118 9.40642C23.6118 9.66615 23.8222 9.87674 24.0821 9.87674H25.9635C26.2234 9.87674 26.4338 9.66615 26.4338 9.40642C26.4338 9.14668 26.2234 8.9361 25.9635 8.9361Z" fill="black"/>
<path d="M25.9635 10.8174H24.0821C23.8222 10.8174 23.6118 11.028 23.6118 11.2877C23.6118 11.5474 23.8222 11.758 24.0821 11.758H25.9635C26.2234 11.758 26.4338 11.5474 26.4338 11.2877C26.4338 11.028 26.2234 10.8174 25.9635 10.8174Z" fill="black"/>
<path d="M1.01373 19.1614C1.06426 19.1614 1.11616 19.1529 1.16668 19.1354C1.41241 19.0509 1.54285 18.7834 1.45834 18.5376C1.21261 17.8244 1.07298 17.0732 1.04313 16.3048C1.03302 16.045 0.81118 15.8351 0.554888 15.8533C0.29538 15.8634 0.0932856 16.0818 0.10339 16.3415C0.13692 17.2015 0.293543 18.0437 0.569126 18.844C0.636185 19.0387 0.818529 19.1614 1.01373 19.1614Z" fill="black"/>
<path d="M0.705165 14.383C0.743746 14.3926 0.781869 14.3972 0.819991 14.3972C1.03035 14.3972 1.22234 14.2548 1.27562 14.0413C1.46118 13.3027 1.75146 12.5947 2.13866 11.9372C2.27048 11.7133 2.19607 11.4251 1.97239 11.2931C1.74871 11.1615 1.46026 11.2356 1.32844 11.4596C0.895317 12.1949 0.570588 12.9865 0.363442 13.8125C0.300057 14.0645 0.453006 14.3198 0.705165 14.383Z" fill="black"/>
<path d="M7.49183 8.13515C7.51985 8.13515 7.54879 8.13262 7.57726 8.12734C8.3195 7.99116 9.09573 7.96038 9.85037 8.03663C10.1227 8.0674 10.34 7.87473 10.3662 7.61637C10.3923 7.35802 10.204 7.12722 9.9459 7.10104C9.10262 7.01492 8.23637 7.04937 7.40732 7.20231C7.15195 7.24916 6.98292 7.49443 7.02977 7.75003C7.07157 7.97669 7.26907 8.13515 7.49183 8.13515Z" fill="black"/>
<path d="M3.23889 10.2886C3.35463 10.2886 3.46992 10.2464 3.56086 10.1612C4.118 9.63781 4.74495 9.19827 5.4238 8.85448C5.65529 8.73713 5.74807 8.4542 5.63095 8.22249C5.51291 7.99077 5.23136 7.89731 4.99849 8.01535C4.23971 8.39955 3.53927 8.89077 2.91692 9.47545C2.72768 9.6532 2.71804 9.95105 2.89625 10.1403C2.98857 10.2388 3.1135 10.2886 3.23889 10.2886Z" fill="black"/>
<path d="M17.0525 13.7447C17.1026 13.7447 17.1536 13.7364 17.2036 13.7196C17.4494 13.6363 17.5812 13.3692 17.4981 13.1232C17.2252 12.3178 16.8376 11.5552 16.3466 10.8566C16.1968 10.6439 15.9033 10.5927 15.6911 10.7425C15.4785 10.8917 15.4275 11.1852 15.5768 11.3976C16.0163 12.0227 16.3631 12.7048 16.607 13.425C16.6736 13.6211 16.8564 13.7447 17.0525 13.7447Z" fill="black"/>
<path d="M16.5769 19.8631C16.3537 19.7319 16.0652 19.8068 15.9334 20.0305C15.5476 20.6877 15.0704 21.2864 14.5151 21.81C14.3258 21.9882 14.3171 22.2859 14.4953 22.4749C14.5876 22.5729 14.7126 22.6225 14.8375 22.6225C14.9532 22.6225 15.0694 22.58 15.1599 22.4944C15.7804 21.9095 16.3137 21.2407 16.7445 20.5068C16.8759 20.2826 16.801 19.9944 16.5769 19.8631Z" fill="black"/>
<path d="M17.471 15.1727C17.2115 15.1831 17.0094 15.4017 17.02 15.6612C17.0241 15.7712 17.0264 15.8819 17.0269 15.9912C17.0269 16.6459 16.9474 17.2967 16.7913 17.9251C16.7288 18.177 16.8822 18.4321 17.1344 18.4948C17.1725 18.5045 17.2106 18.5088 17.2483 18.5088C17.4591 18.5088 17.6511 18.366 17.7044 18.152C17.8789 17.4495 17.9676 16.7224 17.9676 15.9894C17.9671 15.8667 17.9648 15.745 17.9598 15.624C17.9492 15.3643 17.7237 15.1635 17.471 15.1727Z" fill="black"/>
<path d="M12.655 23.1203C11.9753 23.4667 11.2509 23.7126 10.5023 23.8515C10.2469 23.8991 10.0783 24.1446 10.1256 24.3999C10.1679 24.6264 10.3654 24.7844 10.5877 24.7844C10.6162 24.7844 10.6451 24.7819 10.674 24.7766C11.5118 24.6209 12.322 24.3458 13.0822 23.9586C13.3137 23.8405 13.4055 23.5574 13.2875 23.3259C13.1699 23.0946 12.8865 23.0016 12.655 23.1203Z" fill="black"/>
<path d="M8.22912 23.9464C7.63203 23.8862 7.04549 23.7581 6.48606 23.5654C6.23941 23.4816 5.97256 23.6111 5.88804 23.8568C5.80353 24.1023 5.93397 24.3701 6.17924 24.4546C6.80757 24.6712 7.4653 24.8149 8.13451 24.8824C8.15058 24.884 8.16666 24.8847 8.18227 24.8847C8.42111 24.8847 8.6255 24.704 8.64985 24.4615C8.67603 24.2031 8.48725 23.9726 8.22912 23.9464Z" fill="black"/>
<path d="M14.0187 9.74009C14.1051 9.80944 14.2089 9.84297 14.3117 9.84297C14.45 9.84297 14.5869 9.78257 14.6796 9.66637C14.8418 9.46336 14.8087 9.16734 14.6057 9.00521C13.9392 8.47243 13.2016 8.03885 12.4143 7.71665C12.176 7.61997 11.899 7.73342 11.8007 7.97409C11.7024 8.21453 11.8177 8.48896 12.0579 8.58748C12.7625 8.87546 13.4221 9.26334 14.0187 9.74009Z" fill="black"/>
<path d="M10.4681 21.5447C10.6297 21.586 10.8006 21.5394 10.9182 21.4218L14.8397 17.5004C14.9573 17.3825 15.0042 17.2115 14.9624 17.0502L14.1434 13.8783C14.1016 13.7148 13.9748 13.5867 13.8123 13.5421C13.6497 13.498 13.4751 13.544 13.3557 13.6634L10.5507 16.4681L8.5555 14.4727L11.36 11.668C11.4794 11.5486 11.5258 11.3745 11.4813 11.2117C11.4367 11.0488 11.3086 10.9223 11.1451 10.88L7.97356 10.0611C7.81143 10.0184 7.64057 10.0664 7.52344 10.184L3.60143 14.1055C3.48385 14.223 3.437 14.3944 3.4788 14.5556L4.23022 17.4673L0.694949 21.003C0.255393 21.442 0.0165543 22.0283 0.022066 22.6534C0.0275777 23.2756 0.274684 23.8623 0.717914 24.3055C1.18043 24.7683 1.78672 25 2.39025 25C2.98275 25 3.57296 24.7765 4.02078 24.3285L7.55605 20.7928L10.4681 21.5447ZM7.08113 19.9378L3.35571 23.6634C2.81878 24.2006 1.93324 24.1912 1.38299 23.6405C1.11521 23.3727 0.965939 23.0193 0.962724 22.6454C0.959509 22.2745 1.10052 21.9275 1.36002 21.668L5.08545 17.9424C5.20303 17.8246 5.24988 17.6535 5.20808 17.4923L4.45666 14.5806L7.99837 11.039L10.113 11.5851L7.55789 14.1401C7.37417 14.3239 7.37417 14.6215 7.55789 14.8052L10.2182 17.4657C10.3064 17.5539 10.4258 17.6035 10.5507 17.6035C10.6757 17.6035 10.7951 17.5539 10.8833 17.4657L13.4388 14.9106L13.9845 17.0252L10.4432 20.5669L7.53125 19.815C7.36866 19.773 7.19826 19.82 7.08113 19.9378Z" fill="black"/>
</svg>
